<svg version="1.1" xmlns="http://www.w3.org/2000/svg" viewBox="0 0 2271.978369654923 421.2434645504156" width="2271.978369654923" height="421.2434645504156" class="excalidraw-svg">
  <!-- svg-source:excalidraw -->
  
  <defs>
    <style class="style-fonts">
      
    </style>
    
  </defs>
  <rect x="0" y="0" width="2271.978369654923" height="421.2434645504156" fill="#ffffff"></rect><g stroke-linecap="round" transform="translate(363.9583551927476 14.407334809544523) rotate(0 30.5 30.5)"><path d="M61 30.5 C61 32.27, 60.84 34.06, 60.54 35.8 C60.23 37.53, 59.76 39.27, 59.16 40.93 C58.56 42.59, 57.8 44.22, 56.91 45.75 C56.03 47.28, 55 48.75, 53.86 50.11 C52.73 51.46, 51.46 52.73, 50.11 53.86 C48.75 55, 47.28 56.03, 45.75 56.91 C44.22 57.8, 42.59 58.56, 40.93 59.16 C39.27 59.76, 37.53 60.23, 35.8 60.54 C34.06 60.84, 32.27 61, 30.5 61 C28.73 61, 26.94 60.84, 25.2 60.54 C23.47 60.23, 21.73 59.76, 20.07 59.16 C18.41 58.56, 16.78 57.8, 15.25 56.91 C13.72 56.03, 12.25 55, 10.89 53.86 C9.54 52.73, 8.27 51.46, 7.14 50.11 C6 48.75, 4.97 47.28, 4.09 45.75 C3.2 44.22, 2.44 42.59, 1.84 40.93 C1.24 39.27, 0.77 37.53, 0.46 35.8 C0.16 34.06, 0 32.27, 0 30.5 C0 28.73, 0.16 26.94, 0.46 25.2 C0.77 23.47, 1.24 21.73, 1.84 20.07 C2.44 18.41, 3.2 16.78, 4.09 15.25 C4.97 13.72, 6 12.25, 7.14 10.89 C8.27 9.54, 9.54 8.27, 10.89 7.14 C12.25 6, 13.72 4.97, 15.25 4.09 C16.78 3.2, 18.41 2.44, 20.07 1.84 C21.73 1.24, 23.47 0.77, 25.2 0.46 C26.94 0.16, 28.73 0, 30.5 0 C32.27 0, 34.06 0.16, 35.8 0.46 C37.53 0.77, 39.27 1.24, 40.93 1.84 C42.59 2.44, 44.22 3.2, 45.75 4.09 C47.28 4.97, 48.75 6, 50.11 7.14 C51.46 8.27, 52.73 9.54, 53.86 10.89 C55 12.25, 56.03 13.72, 56.91 15.25 C57.8 16.78, 58.56 18.41, 59.16 20.07 C59.76 21.73, 60.23 23.47, 60.54 25.2 C60.84 26.94, 60.92 29.62, 61 30.5 C61.08 31.38, 61.08 29.62, 61 30.5" stroke="#1e1e1e" stroke-width="2" fill="none"></path></g><g stroke-linecap="round" transform="translate(114 159.76656193060717) rotate(0 30.5 30.5)"><path d="M61 30.5 C61 32.27, 60.84 34.06, 60.54 35.8 C60.23 37.53, 59.76 39.27, 59.16 40.93 C58.56 42.59, 57.8 44.22, 56.91 45.75 C56.03 47.28, 55 48.75, 53.86 50.11 C52.73 51.46, 51.46 52.73, 50.11 53.86 C48.75 55, 47.28 56.03, 45.75 56.91 C44.22 57.8, 42.59 58.56, 40.93 59.16 C39.27 59.76, 37.53 60.23, 35.8 60.54 C34.06 60.84, 32.27 61, 30.5 61 C28.73 61, 26.94 60.84, 25.2 60.54 C23.47 60.23, 21.73 59.76, 20.07 59.16 C18.41 58.56, 16.78 57.8, 15.25 56.91 C13.72 56.03, 12.25 55, 10.89 53.86 C9.54 52.73, 8.27 51.46, 7.14 50.11 C6 48.75, 4.97 47.28, 4.09 45.75 C3.2 44.22, 2.44 42.59, 1.84 40.93 C1.24 39.27, 0.77 37.53, 0.46 35.8 C0.16 34.06, 0 32.27, 0 30.5 C0 28.73, 0.16 26.94, 0.46 25.2 C0.77 23.47, 1.24 21.73, 1.84 20.07 C2.44 18.41, 3.2 16.78, 4.09 15.25 C4.97 13.72, 6 12.25, 7.14 10.89 C8.27 9.54, 9.54 8.27, 10.89 7.14 C12.25 6, 13.72 4.97, 15.25 4.09 C16.78 3.2, 18.41 2.44, 20.07 1.84 C21.73 1.24, 23.47 0.77, 25.2 0.46 C26.94 0.16, 28.73 0, 30.5 0 C32.27 0, 34.06 0.16, 35.8 0.46 C37.53 0.77, 39.27 1.24, 40.93 1.84 C42.59 2.44, 44.22 3.2, 45.75 4.09 C47.28 4.97, 48.75 6, 50.11 7.14 C51.46 8.27, 52.73 9.54, 53.86 10.89 C55 12.25, 56.03 13.72, 56.91 15.25 C57.8 16.78, 58.56 18.41, 59.16 20.07 C59.76 21.73, 60.23 23.47, 60.54 25.2 C60.84 26.94, 60.92 29.62, 61 30.5 C61.08 31.38, 61.08 29.62, 61 30.5" stroke="#1e1e1e" stroke-width="2" fill="none"></path></g><g stroke-linecap="round" transform="translate(358 159.76656193060717) rotate(0 30.5 30.5)"><path d="M61 30.5 C61 32.27, 60.84 34.06, 60.54 35.8 C60.23 37.53, 59.76 39.27, 59.16 40.93 C58.56 42.59, 57.8 44.22, 56.91 45.75 C56.03 47.28, 55 48.75, 53.86 50.11 C52.73 51.46, 51.46 52.73, 50.11 53.86 C48.75 55, 47.28 56.03, 45.75 56.91 C44.22 57.8, 42.59 58.56, 40.93 59.16 C39.27 59.76, 37.53 60.23, 35.8 60.54 C34.06 60.84, 32.27 61, 30.5 61 C28.73 61, 26.94 60.84, 25.2 60.54 C23.47 60.23, 21.73 59.76, 20.07 59.16 C18.41 58.56, 16.78 57.8, 15.25 56.91 C13.72 56.03, 12.25 55, 10.89 53.86 C9.54 52.73, 8.27 51.46, 7.14 50.11 C6 48.75, 4.97 47.28, 4.09 45.75 C3.2 44.22, 2.44 42.59, 1.84 40.93 C1.24 39.27, 0.77 37.53, 0.46 35.8 C0.16 34.06, 0 32.27, 0 30.5 C0 28.73, 0.16 26.94, 0.46 25.2 C0.77 23.47, 1.24 21.73, 1.84 20.07 C2.44 18.41, 3.2 16.78, 4.09 15.25 C4.97 13.72, 6 12.25, 7.14 10.89 C8.27 9.54, 9.54 8.27, 10.89 7.14 C12.25 6, 13.72 4.97, 15.25 4.09 C16.78 3.2, 18.41 2.44, 20.07 1.84 C21.73 1.24, 23.47 0.77, 25.2 0.46 C26.94 0.16, 28.73 0, 30.5 0 C32.27 0, 34.06 0.16, 35.8 0.46 C37.53 0.77, 39.27 1.24, 40.93 1.84 C42.59 2.44, 44.22 3.2, 45.75 4.09 C47.28 4.97, 48.75 6, 50.11 7.14 C51.46 8.27, 52.73 9.54, 53.86 10.89 C55 12.25, 56.03 13.72, 56.91 15.25 C57.8 16.78, 58.56 18.41, 59.16 20.07 C59.76 21.73, 60.23 23.47, 60.54 25.2 C60.84 26.94, 60.92 29.62, 61 30.5 C61.08 31.38, 61.08 29.62, 61 30.5" stroke="#1e1e1e" stroke-width="2" fill="none"></path></g><g stroke-linecap="round" transform="translate(594.6872809686695 159.76656193060717) rotate(0 30.5 30.5)"><path d="M61 30.5 C61 32.27, 60.84 34.06, 60.54 35.8 C60.23 37.53, 59.76 39.27, 59.16 40.93 C58.56 42.59, 57.8 44.22, 56.91 45.75 C56.03 47.28, 55 48.75, 53.86 50.11 C52.73 51.46, 51.46 52.73, 50.11 53.86 C48.75 55, 47.28 56.03, 45.75 56.91 C44.22 57.8, 42.59 58.56, 40.93 59.16 C39.27 59.76, 37.53 60.23, 35.8 60.54 C34.06 60.84, 32.27 61, 30.5 61 C28.73 61, 26.94 60.84, 25.2 60.54 C23.47 60.23, 21.73 59.76, 20.07 59.16 C18.41 58.56, 16.78 57.8, 15.25 56.91 C13.72 56.03, 12.25 55, 10.89 53.86 C9.54 52.73, 8.27 51.46, 7.14 50.11 C6 48.75, 4.97 47.28, 4.09 45.75 C3.2 44.22, 2.44 42.59, 1.84 40.93 C1.24 39.27, 0.77 37.53, 0.46 35.8 C0.16 34.06, 0 32.27, 0 30.5 C0 28.73, 0.16 26.94, 0.46 25.2 C0.77 23.47, 1.24 21.73, 1.84 20.07 C2.44 18.41, 3.2 16.78, 4.09 15.25 C4.97 13.72, 6 12.25, 7.14 10.89 C8.27 9.54, 9.54 8.27, 10.89 7.14 C12.25 6, 13.72 4.97, 15.25 4.09 C16.78 3.2, 18.41 2.44, 20.07 1.84 C21.73 1.24, 23.47 0.77, 25.2 0.46 C26.94 0.16, 28.73 0, 30.5 0 C32.27 0, 34.06 0.16, 35.8 0.46 C37.53 0.77, 39.27 1.24, 40.93 1.84 C42.59 2.44, 44.22 3.2, 45.75 4.09 C47.28 4.97, 48.75 6, 50.11 7.14 C51.46 8.27, 52.73 9.54, 53.86 10.89 C55 12.25, 56.03 13.72, 56.91 15.25 C57.8 16.78, 58.56 18.41, 59.16 20.07 C59.76 21.73, 60.23 23.47, 60.54 25.2 C60.84 26.94, 60.92 29.62, 61 30.5 C61.08 31.38, 61.08 29.62, 61 30.5" stroke="none" stroke-width="0" fill="#ffc9c9"></path><path d="M61 30.5 C61 32.27, 60.84 34.06, 60.54 35.8 C60.23 37.53, 59.76 39.27, 59.16 40.93 C58.56 42.59, 57.8 44.22, 56.91 45.75 C56.03 47.28, 55 48.75, 53.86 50.11 C52.73 51.46, 51.46 52.73, 50.11 53.86 C48.75 55, 47.28 56.03, 45.75 56.91 C44.22 57.8, 42.59 58.56, 40.93 59.16 C39.27 59.76, 37.53 60.23, 35.8 60.54 C34.06 60.84, 32.27 61, 30.5 61 C28.73 61, 26.94 60.84, 25.2 60.54 C23.47 60.23, 21.73 59.76, 20.07 59.16 C18.41 58.56, 16.78 57.8, 15.25 56.91 C13.72 56.03, 12.25 55, 10.89 53.86 C9.54 52.73, 8.27 51.46, 7.14 50.11 C6 48.75, 4.97 47.28, 4.09 45.75 C3.2 44.22, 2.44 42.59, 1.84 40.93 C1.24 39.27, 0.77 37.53, 0.46 35.8 C0.16 34.06, 0 32.27, 0 30.5 C0 28.73, 0.16 26.94, 0.46 25.2 C0.77 23.47, 1.24 21.73, 1.84 20.07 C2.44 18.41, 3.2 16.78, 4.09 15.25 C4.97 13.72, 6 12.25, 7.14 10.89 C8.27 9.54, 9.54 8.27, 10.89 7.14 C12.25 6, 13.72 4.97, 15.25 4.09 C16.78 3.2, 18.41 2.44, 20.07 1.84 C21.73 1.24, 23.47 0.77, 25.2 0.46 C26.94 0.16, 28.73 0, 30.5 0 C32.27 0, 34.06 0.16, 35.8 0.46 C37.53 0.77, 39.27 1.24, 40.93 1.84 C42.59 2.44, 44.22 3.2, 45.75 4.09 C47.28 4.97, 48.75 6, 50.11 7.14 C51.46 8.27, 52.73 9.54, 53.86 10.89 C55 12.25, 56.03 13.72, 56.91 15.25 C57.8 16.78, 58.56 18.41, 59.16 20.07 C59.76 21.73, 60.23 23.47, 60.54 25.2 C60.84 26.94, 60.92 29.62, 61 30.5 C61.08 31.38, 61.08 29.62, 61 30.5" stroke="#1e1e1e" stroke-width="2" fill="none"></path></g><g stroke-linecap="round" transform="translate(10 298.45446720414714) rotate(0 30.5 30.5)"><path d="M61 30.5 C61 32.27, 60.84 34.06, 60.54 35.8 C60.23 37.53, 59.76 39.27, 59.16 40.93 C58.56 42.59, 57.8 44.22, 56.91 45.75 C56.03 47.28, 55 48.75, 53.86 50.11 C52.73 51.46, 51.46 52.73, 50.11 53.86 C48.75 55, 47.28 56.03, 45.75 56.91 C44.22 57.8, 42.59 58.56, 40.93 59.16 C39.27 59.76, 37.53 60.23, 35.8 60.54 C34.06 60.84, 32.27 61, 30.5 61 C28.73 61, 26.94 60.84, 25.2 60.54 C23.47 60.23, 21.73 59.76, 20.07 59.16 C18.41 58.56, 16.78 57.8, 15.25 56.91 C13.72 56.03, 12.25 55, 10.89 53.86 C9.54 52.73, 8.27 51.46, 7.14 50.11 C6 48.75, 4.97 47.28, 4.09 45.75 C3.2 44.22, 2.44 42.59, 1.84 40.93 C1.24 39.27, 0.77 37.53, 0.46 35.8 C0.16 34.06, 0 32.27, 0 30.5 C0 28.73, 0.16 26.94, 0.46 25.2 C0.77 23.47, 1.24 21.73, 1.84 20.07 C2.44 18.41, 3.2 16.78, 4.09 15.25 C4.97 13.72, 6 12.25, 7.14 10.89 C8.27 9.54, 9.54 8.27, 10.89 7.14 C12.25 6, 13.72 4.97, 15.25 4.09 C16.78 3.2, 18.41 2.44, 20.07 1.84 C21.73 1.24, 23.47 0.77, 25.2 0.46 C26.94 0.16, 28.73 0, 30.5 0 C32.27 0, 34.06 0.16, 35.8 0.46 C37.53 0.77, 39.27 1.24, 40.93 1.84 C42.59 2.44, 44.22 3.2, 45.75 4.09 C47.28 4.97, 48.75 6, 50.11 7.14 C51.46 8.27, 52.73 9.54, 53.86 10.89 C55 12.25, 56.03 13.72, 56.91 15.25 C57.8 16.78, 58.56 18.41, 59.16 20.07 C59.76 21.73, 60.23 23.47, 60.54 25.2 C60.84 26.94, 60.92 29.62, 61 30.5 C61.08 31.38, 61.08 29.62, 61 30.5" stroke="#1e1e1e" stroke-width="2" fill="none"></path></g><g stroke-linecap="round" transform="translate(86 298.45446720414714) rotate(0 30.5 30.5)"><path d="M61 30.5 C61 32.27, 60.84 34.06, 60.54 35.8 C60.23 37.53, 59.76 39.27, 59.16 40.93 C58.56 42.59, 57.8 44.22, 56.91 45.75 C56.03 47.28, 55 48.75, 53.86 50.11 C52.73 51.46, 51.46 52.73, 50.11 53.86 C48.75 55, 47.28 56.03, 45.75 56.91 C44.22 57.8, 42.59 58.56, 40.93 59.16 C39.27 59.76, 37.53 60.23, 35.8 60.54 C34.06 60.84, 32.27 61, 30.5 61 C28.73 61, 26.94 60.84, 25.2 60.54 C23.47 60.23, 21.73 59.76, 20.07 59.16 C18.41 58.56, 16.78 57.8, 15.25 56.91 C13.72 56.03, 12.25 55, 10.89 53.86 C9.54 52.73, 8.27 51.46, 7.14 50.11 C6 48.75, 4.97 47.28, 4.09 45.75 C3.2 44.22, 2.44 42.59, 1.84 40.93 C1.24 39.27, 0.77 37.53, 0.46 35.8 C0.16 34.06, 0 32.27, 0 30.5 C0 28.73, 0.16 26.94, 0.46 25.2 C0.77 23.47, 1.24 21.73, 1.84 20.07 C2.44 18.41, 3.2 16.78, 4.09 15.25 C4.97 13.72, 6 12.25, 7.14 10.89 C8.27 9.54, 9.54 8.27, 10.89 7.14 C12.25 6, 13.72 4.97, 15.25 4.09 C16.78 3.2, 18.41 2.44, 20.07 1.84 C21.73 1.24, 23.47 0.77, 25.2 0.46 C26.94 0.16, 28.73 0, 30.5 0 C32.27 0, 34.06 0.16, 35.8 0.46 C37.53 0.77, 39.27 1.24, 40.93 1.84 C42.59 2.44, 44.22 3.2, 45.75 4.09 C47.28 4.97, 48.75 6, 50.11 7.14 C51.46 8.27, 52.73 9.54, 53.86 10.89 C55 12.25, 56.03 13.72, 56.91 15.25 C57.8 16.78, 58.56 18.41, 59.16 20.07 C59.76 21.73, 60.23 23.47, 60.54 25.2 C60.84 26.94, 60.92 29.62, 61 30.5 C61.08 31.38, 61.08 29.62, 61 30.5" stroke="#1e1e1e" stroke-width="2" fill="none"></path></g><g stroke-linecap="round" transform="translate(167 298.45446720414714) rotate(0 30.5 30.5)"><path d="M61 30.5 C61 32.27, 60.84 34.06, 60.54 35.8 C60.23 37.53, 59.76 39.27, 59.16 40.93 C58.56 42.59, 57.8 44.22, 56.91 45.75 C56.03 47.28, 55 48.75, 53.86 50.11 C52.73 51.46, 51.46 52.73, 50.11 53.86 C48.75 55, 47.28 56.03, 45.75 56.91 C44.22 57.8, 42.59 58.56, 40.93 59.16 C39.27 59.76, 37.53 60.23, 35.8 60.54 C34.06 60.84, 32.27 61, 30.5 61 C28.73 61, 26.94 60.84, 25.2 60.54 C23.47 60.23, 21.73 59.76, 20.07 59.16 C18.41 58.56, 16.78 57.8, 15.25 56.91 C13.72 56.03, 12.25 55, 10.89 53.86 C9.54 52.73, 8.27 51.46, 7.14 50.11 C6 48.75, 4.97 47.28, 4.09 45.75 C3.2 44.22, 2.44 42.59, 1.84 40.93 C1.24 39.27, 0.77 37.53, 0.46 35.8 C0.16 34.06, 0 32.27, 0 30.5 C0 28.73, 0.16 26.94, 0.46 25.2 C0.77 23.47, 1.24 21.73, 1.84 20.07 C2.44 18.41, 3.2 16.78, 4.09 15.25 C4.97 13.72, 6 12.25, 7.14 10.89 C8.27 9.54, 9.54 8.27, 10.89 7.14 C12.25 6, 13.72 4.97, 15.25 4.09 C16.78 3.2, 18.41 2.44, 20.07 1.84 C21.73 1.24, 23.47 0.77, 25.2 0.46 C26.94 0.16, 28.73 0, 30.5 0 C32.27 0, 34.06 0.16, 35.8 0.46 C37.53 0.77, 39.27 1.24, 40.93 1.84 C42.59 2.44, 44.22 3.2, 45.75 4.09 C47.28 4.97, 48.75 6, 50.11 7.14 C51.46 8.27, 52.73 9.54, 53.86 10.89 C55 12.25, 56.03 13.72, 56.91 15.25 C57.8 16.78, 58.56 18.41, 59.16 20.07 C59.76 21.73, 60.23 23.47, 60.54 25.2 C60.84 26.94, 60.92 29.62, 61 30.5 C61.08 31.38, 61.08 29.62, 61 30.5" stroke="#1e1e1e" stroke-width="2" fill="none"></path></g><g stroke-linecap="round" transform="translate(289 298.45446720414714) rotate(0 30.5 30.5)"><path d="M61 30.5 C61 32.27, 60.84 34.06, 60.54 35.8 C60.23 37.53, 59.76 39.27, 59.16 40.93 C58.56 42.59, 57.8 44.22, 56.91 45.75 C56.03 47.28, 55 48.75, 53.86 50.11 C52.73 51.46, 51.46 52.73, 50.11 53.86 C48.75 55, 47.28 56.03, 45.75 56.91 C44.22 57.8, 42.59 58.56, 40.93 59.16 C39.27 59.76, 37.53 60.23, 35.8 60.54 C34.06 60.84, 32.27 61, 30.5 61 C28.73 61, 26.94 60.84, 25.2 60.54 C23.47 60.23, 21.73 59.76, 20.07 59.16 C18.41 58.56, 16.78 57.8, 15.25 56.91 C13.72 56.03, 12.25 55, 10.89 53.86 C9.54 52.73, 8.27 51.46, 7.14 50.11 C6 48.75, 4.97 47.28, 4.09 45.75 C3.2 44.22, 2.44 42.59, 1.84 40.93 C1.24 39.27, 0.77 37.53, 0.46 35.8 C0.16 34.06, 0 32.27, 0 30.5 C0 28.73, 0.16 26.94, 0.46 25.2 C0.77 23.47, 1.24 21.73, 1.84 20.07 C2.44 18.41, 3.2 16.78, 4.09 15.25 C4.97 13.72, 6 12.25, 7.14 10.89 C8.27 9.54, 9.54 8.27, 10.89 7.14 C12.25 6, 13.72 4.97, 15.25 4.09 C16.78 3.2, 18.41 2.44, 20.07 1.84 C21.73 1.24, 23.47 0.77, 25.2 0.46 C26.94 0.16, 28.73 0, 30.5 0 C32.27 0, 34.06 0.16, 35.8 0.46 C37.53 0.77, 39.27 1.24, 40.93 1.84 C42.59 2.44, 44.22 3.2, 45.75 4.09 C47.28 4.97, 48.75 6, 50.11 7.14 C51.46 8.27, 52.73 9.54, 53.86 10.89 C55 12.25, 56.03 13.72, 56.91 15.25 C57.8 16.78, 58.56 18.41, 59.16 20.07 C59.76 21.73, 60.23 23.47, 60.54 25.2 C60.84 26.94, 60.92 29.62, 61 30.5 C61.08 31.38, 61.08 29.62, 61 30.5" stroke="#1e1e1e" stroke-width="2" fill="none"></path></g><g stroke-linecap="round" transform="translate(355 298.45446720414714) rotate(0 30.5 30.5)"><path d="M61 30.5 C61 32.27, 60.84 34.06, 60.54 35.8 C60.23 37.53, 59.76 39.27, 59.16 40.93 C58.56 42.59, 57.8 44.22, 56.91 45.75 C56.03 47.28, 55 48.75, 53.86 50.11 C52.73 51.46, 51.46 52.73, 50.11 53.86 C48.75 55, 47.28 56.03, 45.75 56.91 C44.22 57.8, 42.59 58.56, 40.93 59.16 C39.27 59.76, 37.53 60.23, 35.8 60.54 C34.06 60.84, 32.27 61, 30.5 61 C28.73 61, 26.94 60.84, 25.2 60.54 C23.47 60.23, 21.73 59.76, 20.07 59.16 C18.41 58.56, 16.78 57.8, 15.25 56.91 C13.72 56.03, 12.25 55, 10.89 53.86 C9.54 52.73, 8.27 51.46, 7.14 50.11 C6 48.75, 4.97 47.28, 4.09 45.75 C3.2 44.22, 2.44 42.59, 1.84 40.93 C1.24 39.27, 0.77 37.53, 0.46 35.8 C0.16 34.06, 0 32.27, 0 30.5 C0 28.73, 0.16 26.94, 0.46 25.2 C0.77 23.47, 1.24 21.73, 1.84 20.07 C2.44 18.41, 3.2 16.78, 4.09 15.25 C4.97 13.72, 6 12.25, 7.14 10.89 C8.27 9.54, 9.54 8.27, 10.89 7.14 C12.25 6, 13.72 4.97, 15.25 4.09 C16.78 3.2, 18.41 2.44, 20.07 1.84 C21.73 1.24, 23.47 0.77, 25.2 0.46 C26.94 0.16, 28.73 0, 30.5 0 C32.27 0, 34.06 0.16, 35.8 0.46 C37.53 0.77, 39.27 1.24, 40.93 1.84 C42.59 2.44, 44.22 3.2, 45.75 4.09 C47.28 4.97, 48.75 6, 50.11 7.14 C51.46 8.27, 52.73 9.54, 53.86 10.89 C55 12.25, 56.03 13.72, 56.91 15.25 C57.8 16.78, 58.56 18.41, 59.16 20.07 C59.76 21.73, 60.23 23.47, 60.54 25.2 C60.84 26.94, 60.92 29.62, 61 30.5 C61.08 31.38, 61.08 29.62, 61 30.5" stroke="#1e1e1e" stroke-width="2" fill="none"></path></g><g stroke-linecap="round" transform="translate(425 298.45446720414714) rotate(0 30.5 30.5)"><path d="M61 30.5 C61 32.27, 60.84 34.06, 60.54 35.8 C60.23 37.53, 59.76 39.27, 59.16 40.93 C58.56 42.59, 57.8 44.22, 56.91 45.75 C56.03 47.28, 55 48.75, 53.86 50.11 C52.73 51.46, 51.46 52.73, 50.11 53.86 C48.75 55, 47.28 56.03, 45.75 56.91 C44.22 57.8, 42.59 58.56, 40.93 59.16 C39.27 59.76, 37.53 60.23, 35.8 60.54 C34.06 60.84, 32.27 61, 30.5 61 C28.73 61, 26.94 60.84, 25.2 60.54 C23.47 60.23, 21.73 59.76, 20.07 59.16 C18.41 58.56, 16.78 57.8, 15.25 56.91 C13.72 56.03, 12.25 55, 10.89 53.86 C9.54 52.73, 8.27 51.46, 7.14 50.11 C6 48.75, 4.97 47.28, 4.09 45.75 C3.2 44.22, 2.44 42.59, 1.84 40.93 C1.24 39.27, 0.77 37.53, 0.46 35.8 C0.16 34.06, 0 32.27, 0 30.5 C0 28.73, 0.16 26.94, 0.46 25.2 C0.77 23.47, 1.24 21.73, 1.84 20.07 C2.44 18.41, 3.2 16.78, 4.09 15.25 C4.97 13.72, 6 12.25, 7.14 10.89 C8.27 9.54, 9.54 8.27, 10.89 7.14 C12.25 6, 13.72 4.97, 15.25 4.09 C16.78 3.2, 18.41 2.44, 20.07 1.84 C21.73 1.24, 23.47 0.77, 25.2 0.46 C26.94 0.16, 28.73 0, 30.5 0 C32.27 0, 34.06 0.16, 35.8 0.46 C37.53 0.77, 39.27 1.24, 40.93 1.84 C42.59 2.44, 44.22 3.2, 45.75 4.09 C47.28 4.97, 48.75 6, 50.11 7.14 C51.46 8.27, 52.73 9.54, 53.86 10.89 C55 12.25, 56.03 13.72, 56.91 15.25 C57.8 16.78, 58.56 18.41, 59.16 20.07 C59.76 21.73, 60.23 23.47, 60.54 25.2 C60.84 26.94, 60.92 29.62, 61 30.5 C61.08 31.38, 61.08 29.62, 61 30.5" stroke="#1e1e1e" stroke-width="2" fill="none"></path></g><g stroke-linecap="round" transform="translate(529.6872809686695 298.45446720414714) rotate(0 30.5 30.5)"><path d="M61 30.5 C61 32.27, 60.84 34.06, 60.54 35.8 C60.23 37.53, 59.76 39.27, 59.16 40.93 C58.56 42.59, 57.8 44.22, 56.91 45.75 C56.03 47.28, 55 48.75, 53.86 50.11 C52.73 51.46, 51.46 52.73, 50.11 53.86 C48.75 55, 47.28 56.03, 45.75 56.91 C44.22 57.8, 42.59 58.56, 40.93 59.16 C39.27 59.76, 37.53 60.23, 35.8 60.54 C34.06 60.84, 32.27 61, 30.5 61 C28.73 61, 26.94 60.84, 25.2 60.54 C23.47 60.23, 21.73 59.76, 20.07 59.16 C18.41 58.56, 16.78 57.8, 15.25 56.91 C13.72 56.03, 12.25 55, 10.89 53.86 C9.54 52.73, 8.27 51.46, 7.14 50.11 C6 48.75, 4.97 47.28, 4.09 45.75 C3.2 44.22, 2.44 42.59, 1.84 40.93 C1.24 39.27, 0.77 37.53, 0.46 35.8 C0.16 34.06, 0 32.27, 0 30.5 C0 28.73, 0.16 26.94, 0.46 25.2 C0.77 23.47, 1.24 21.73, 1.84 20.07 C2.44 18.41, 3.2 16.78, 4.09 15.25 C4.97 13.72, 6 12.25, 7.14 10.89 C8.27 9.54, 9.54 8.27, 10.89 7.14 C12.25 6, 13.72 4.97, 15.25 4.09 C16.78 3.2, 18.41 2.44, 20.07 1.84 C21.73 1.24, 23.47 0.77, 25.2 0.46 C26.94 0.16, 28.73 0, 30.5 0 C32.27 0, 34.06 0.16, 35.8 0.46 C37.53 0.77, 39.27 1.24, 40.93 1.84 C42.59 2.44, 44.22 3.2, 45.75 4.09 C47.28 4.97, 48.75 6, 50.11 7.14 C51.46 8.27, 52.73 9.54, 53.86 10.89 C55 12.25, 56.03 13.72, 56.91 15.25 C57.8 16.78, 58.56 18.41, 59.16 20.07 C59.76 21.73, 60.23 23.47, 60.54 25.2 C60.84 26.94, 60.92 29.62, 61 30.5 C61.08 31.38, 61.08 29.62, 61 30.5" stroke="#1e1e1e" stroke-width="2" fill="none"></path></g><g stroke-linecap="round" transform="translate(599.6872809686695 298.45446720414714) rotate(0 30.5 30.5)"><path d="M61 30.5 C61 32.27, 60.84 34.06, 60.54 35.8 C60.23 37.53, 59.76 39.27, 59.16 40.93 C58.56 42.59, 57.8 44.22, 56.91 45.75 C56.03 47.28, 55 48.75, 53.86 50.11 C52.73 51.46, 51.46 52.73, 50.11 53.86 C48.75 55, 47.28 56.03, 45.75 56.91 C44.22 57.8, 42.59 58.56, 40.93 59.16 C39.27 59.76, 37.53 60.23, 35.8 60.54 C34.06 60.84, 32.27 61, 30.5 61 C28.73 61, 26.94 60.84, 25.2 60.54 C23.47 60.23, 21.73 59.76, 20.07 59.16 C18.41 58.56, 16.78 57.8, 15.25 56.91 C13.72 56.03, 12.25 55, 10.89 53.86 C9.54 52.73, 8.27 51.46, 7.14 50.11 C6 48.75, 4.97 47.28, 4.09 45.75 C3.2 44.22, 2.44 42.59, 1.84 40.93 C1.24 39.27, 0.77 37.53, 0.46 35.8 C0.16 34.06, 0 32.27, 0 30.5 C0 28.73, 0.16 26.94, 0.46 25.2 C0.77 23.47, 1.24 21.73, 1.84 20.07 C2.44 18.41, 3.2 16.78, 4.09 15.25 C4.97 13.72, 6 12.25, 7.14 10.89 C8.27 9.54, 9.54 8.27, 10.89 7.14 C12.25 6, 13.72 4.97, 15.25 4.09 C16.78 3.2, 18.41 2.44, 20.07 1.84 C21.73 1.24, 23.47 0.77, 25.2 0.46 C26.94 0.16, 28.73 0, 30.5 0 C32.27 0, 34.06 0.16, 35.8 0.46 C37.53 0.77, 39.27 1.24, 40.93 1.84 C42.59 2.44, 44.22 3.2, 45.75 4.09 C47.28 4.97, 48.75 6, 50.11 7.14 C51.46 8.27, 52.73 9.54, 53.86 10.89 C55 12.25, 56.03 13.72, 56.91 15.25 C57.8 16.78, 58.56 18.41, 59.16 20.07 C59.76 21.73, 60.23 23.47, 60.54 25.2 C60.84 26.94, 60.92 29.62, 61 30.5 C61.08 31.38, 61.08 29.62, 61 30.5" stroke="#1e1e1e" stroke-width="2" fill="none"></path></g><g stroke-linecap="round" transform="translate(684.6872809686695 298.45446720414714) rotate(0 30.5 30.5)"><path d="M61 30.5 C61 32.27, 60.84 34.06, 60.54 35.8 C60.23 37.53, 59.76 39.27, 59.16 40.93 C58.56 42.59, 57.8 44.22, 56.91 45.75 C56.03 47.28, 55 48.75, 53.86 50.11 C52.73 51.46, 51.46 52.73, 50.11 53.86 C48.75 55, 47.28 56.03, 45.75 56.91 C44.22 57.8, 42.59 58.56, 40.93 59.16 C39.27 59.76, 37.53 60.23, 35.8 60.54 C34.06 60.84, 32.27 61, 30.5 61 C28.73 61, 26.94 60.84, 25.2 60.54 C23.47 60.23, 21.73 59.76, 20.07 59.16 C18.41 58.56, 16.78 57.8, 15.25 56.91 C13.72 56.03, 12.25 55, 10.89 53.86 C9.54 52.73, 8.27 51.46, 7.14 50.11 C6 48.75, 4.97 47.28, 4.09 45.75 C3.2 44.22, 2.44 42.59, 1.84 40.93 C1.24 39.27, 0.77 37.53, 0.46 35.8 C0.16 34.06, 0 32.27, 0 30.5 C0 28.73, 0.16 26.94, 0.46 25.2 C0.77 23.47, 1.24 21.73, 1.84 20.07 C2.44 18.41, 3.2 16.78, 4.09 15.25 C4.97 13.72, 6 12.25, 7.14 10.89 C8.27 9.54, 9.54 8.27, 10.89 7.14 C12.25 6, 13.72 4.97, 15.25 4.09 C16.78 3.2, 18.41 2.44, 20.07 1.84 C21.73 1.24, 23.47 0.77, 25.2 0.46 C26.94 0.16, 28.73 0, 30.5 0 C32.27 0, 34.06 0.16, 35.8 0.46 C37.53 0.77, 39.27 1.24, 40.93 1.84 C42.59 2.44, 44.22 3.2, 45.75 4.09 C47.28 4.97, 48.75 6, 50.11 7.14 C51.46 8.27, 52.73 9.54, 53.86 10.89 C55 12.25, 56.03 13.72, 56.91 15.25 C57.8 16.78, 58.56 18.41, 59.16 20.07 C59.76 21.73, 60.23 23.47, 60.54 25.2 C60.84 26.94, 60.92 29.62, 61 30.5 C61.08 31.38, 61.08 29.62, 61 30.5" stroke="#1e1e1e" stroke-width="2" fill="none"></path></g><g stroke-linecap="round"><g transform="translate(363.77225741278414 66.93005239678797) rotate(0 -97.65319107204954 50.432811825227446)"><path d="M0 0 C-50.26 25.96, -100.52 51.91, -195.31 100.87 M0 0 C-70.15 36.23, -140.29 72.45, -195.31 100.87" stroke="#1e1e1e" stroke-width="2" fill="none"></path></g></g><mask></mask><g stroke-linecap="round"><g transform="translate(429.0800968257406 68.79408890700137) rotate(0 83.74027343652688 48.661392063395056)"><path d="M0 0 C54.81 31.85, 109.63 63.7, 167.48 97.32 M0 0 C49.39 28.7, 98.78 57.4, 167.48 97.32" stroke="#1e1e1e" stroke-width="2" fill="none"></path></g></g><mask></mask><g stroke-linecap="round"><g transform="translate(390.0678730442711 79.65851784104387) rotate(0 -0.4197007533628607 35.25486328247962)"><path d="M0 0 C-0.29 24.58, -0.59 49.16, -0.84 70.51 M0 0 C-0.23 19, -0.45 38, -0.84 70.51" stroke="#1e1e1e" stroke-width="2" fill="none"></path></g></g><mask></mask><g stroke-linecap="round"><g transform="translate(118.94118637186853 223.1961754911394) rotate(0 -30.638154995488208 35.25486328247959)"><path d="M0 0 C-17.28 19.89, -34.56 39.77, -61.28 70.51 M0 0 C-24.24 27.9, -48.49 55.79, -61.28 70.51" stroke="#1e1e1e" stroke-width="2" fill="none"></path></g></g><mask></mask><g stroke-linecap="round"><g transform="translate(138.24742102655978 234.10839507857355) rotate(0 -8.3940150672571 27.70024972194824)"><path d="M0 0 C-5.24 17.28, -10.47 34.57, -16.79 55.4 M0 0 C-4.86 16.03, -9.72 32.06, -16.79 55.4" stroke="#1e1e1e" stroke-width="2" fill="none"></path></g></g><mask></mask><g stroke-linecap="round"><g transform="translate(158.39305718797664 231.59019055839644) rotate(0 13.85012486097412 30.218454242125347)"><path d="M0 0 C8.95 19.54, 17.91 39.07, 27.7 60.44 M0 0 C10.01 21.85, 20.03 43.69, 27.7 60.44" stroke="#1e1e1e" stroke-width="2" fill="none"></path></g></g><mask></mask><g stroke-linecap="round"><g transform="translate(367.40403236267684 218.15976645078513) rotate(0 -20.14563616141686 37.773067802656726)"><path d="M0 0 C-8.67 16.26, -17.34 32.51, -40.29 75.55 M0 0 C-15.39 28.86, -30.78 57.71, -40.29 75.55" stroke="#1e1e1e" stroke-width="2" fill="none"></path></g></g><mask></mask><g stroke-linecap="round"><g transform="translate(390.9072745509968 224.03557699786506) rotate(0 -2.0985037668143036 33.576060269028204)"><path d="M0 0 C-1.59 25.48, -3.18 50.95, -4.2 67.15 M0 0 C-0.89 14.31, -1.79 28.62, -4.2 67.15" stroke="#1e1e1e" stroke-width="2" fill="none"></path></g></g><mask></mask><g stroke-linecap="round"><g transform="translate(416.089319752768 215.64156193060802) rotate(0 15.948628627788366 39.87157156947097)"><path d="M0 0 C11.03 27.58, 22.06 55.15, 31.9 79.74 M0 0 C7.46 18.64, 14.91 37.28, 31.9 79.74" stroke="#1e1e1e" stroke-width="2" fill="none"></path></g></g><mask></mask><g stroke-linecap="round"><g transform="translate(602.4364542458744 224.03557699786506) rotate(0 -16.788030134514145 38.19276855601956)"><path d="M0 0 C-9.15 20.81, -18.29 41.62, -33.58 76.39 M0 0 C-12.74 28.99, -25.49 57.99, -33.58 76.39" stroke="#1e1e1e" stroke-width="2" fill="none"></path></g></g><mask></mask><g stroke-linecap="round"><g transform="translate(628.4579009543712 232.4295920651221) rotate(0 1.678803013451386 31.89725725557679)"><path d="M0 0 C0.92 17.48, 1.84 34.96, 3.36 63.79 M0 0 C1.23 23.43, 2.47 46.86, 3.36 63.79" stroke="#1e1e1e" stroke-width="2" fill="none"></path></g></g><mask></mask><g stroke-linecap="round"><g transform="translate(650.2823401292395 224.03557699786506) rotate(0 25.182045201771132 36.09426478920531)"><path d="M0 0 C20.12 28.84, 40.24 57.68, 50.36 72.19 M0 0 C18.47 26.47, 36.94 52.94, 50.36 72.19" stroke="#1e1e1e" stroke-width="2" fill="none"></path></g></g><mask></mask><g stroke-linecap="round" transform="translate(1124.556267851094 13.135656332065992) rotate(0 30.5 30.5)"><path d="M61 30.5 C61 32.27, 60.84 34.06, 60.54 35.8 C60.23 37.53, 59.76 39.27, 59.16 40.93 C58.56 42.59, 57.8 44.22, 56.91 45.75 C56.03 47.28, 55 48.75, 53.86 50.11 C52.73 51.46, 51.46 52.73, 50.11 53.86 C48.75 55, 47.28 56.03, 45.75 56.91 C44.22 57.8, 42.59 58.56, 40.93 59.16 C39.27 59.76, 37.53 60.23, 35.8 60.54 C34.06 60.84, 32.27 61, 30.5 61 C28.73 61, 26.94 60.84, 25.2 60.54 C23.47 60.23, 21.73 59.76, 20.07 59.16 C18.41 58.56, 16.78 57.8, 15.25 56.91 C13.72 56.03, 12.25 55, 10.89 53.86 C9.54 52.73, 8.27 51.46, 7.14 50.11 C6 48.75, 4.97 47.28, 4.09 45.75 C3.2 44.22, 2.44 42.59, 1.84 40.93 C1.24 39.27, 0.77 37.53, 0.46 35.8 C0.16 34.06, 0 32.27, 0 30.5 C0 28.73, 0.16 26.94, 0.46 25.2 C0.77 23.47, 1.24 21.73, 1.84 20.07 C2.44 18.41, 3.2 16.78, 4.09 15.25 C4.97 13.72, 6 12.25, 7.14 10.89 C8.27 9.54, 9.54 8.27, 10.89 7.14 C12.25 6, 13.72 4.97, 15.25 4.09 C16.78 3.2, 18.41 2.44, 20.07 1.84 C21.73 1.24, 23.47 0.77, 25.2 0.46 C26.94 0.16, 28.73 0, 30.5 0 C32.27 0, 34.06 0.16, 35.8 0.46 C37.53 0.77, 39.27 1.24, 40.93 1.84 C42.59 2.44, 44.22 3.2, 45.75 4.09 C47.28 4.97, 48.75 6, 50.11 7.14 C51.46 8.27, 52.73 9.54, 53.86 10.89 C55 12.25, 56.03 13.72, 56.91 15.25 C57.8 16.78, 58.56 18.41, 59.16 20.07 C59.76 21.73, 60.23 23.47, 60.54 25.2 C60.84 26.94, 60.92 29.62, 61 30.5 C61.08 31.38, 61.08 29.62, 61 30.5" stroke="#1e1e1e" stroke-width="2" fill="none"></path></g><g stroke-linecap="round" transform="translate(874.5979126583463 158.49488345312852) rotate(0 30.5 30.5)"><path d="M61 30.5 C61 32.27, 60.84 34.06, 60.54 35.8 C60.23 37.53, 59.76 39.27, 59.16 40.93 C58.56 42.59, 57.8 44.22, 56.91 45.75 C56.03 47.28, 55 48.75, 53.86 50.11 C52.73 51.46, 51.46 52.73, 50.11 53.86 C48.75 55, 47.28 56.03, 45.75 56.91 C44.22 57.8, 42.59 58.56, 40.93 59.16 C39.27 59.76, 37.53 60.23, 35.8 60.54 C34.06 60.84, 32.27 61, 30.5 61 C28.73 61, 26.94 60.84, 25.2 60.54 C23.47 60.23, 21.73 59.76, 20.07 59.16 C18.41 58.56, 16.78 57.8, 15.25 56.91 C13.72 56.03, 12.25 55, 10.89 53.86 C9.54 52.73, 8.27 51.46, 7.14 50.11 C6 48.75, 4.97 47.28, 4.09 45.75 C3.2 44.22, 2.44 42.59, 1.84 40.93 C1.24 39.27, 0.77 37.53, 0.46 35.8 C0.16 34.06, 0 32.27, 0 30.5 C0 28.73, 0.16 26.94, 0.46 25.2 C0.77 23.47, 1.24 21.73, 1.84 20.07 C2.44 18.41, 3.2 16.78, 4.09 15.25 C4.97 13.72, 6 12.25, 7.14 10.89 C8.27 9.54, 9.54 8.27, 10.89 7.14 C12.25 6, 13.72 4.97, 15.25 4.09 C16.78 3.2, 18.41 2.44, 20.07 1.84 C21.73 1.24, 23.47 0.77, 25.2 0.46 C26.94 0.16, 28.73 0, 30.5 0 C32.27 0, 34.06 0.16, 35.8 0.46 C37.53 0.77, 39.27 1.24, 40.93 1.84 C42.59 2.44, 44.22 3.2, 45.75 4.09 C47.28 4.97, 48.75 6, 50.11 7.14 C51.46 8.27, 52.73 9.54, 53.86 10.89 C55 12.25, 56.03 13.72, 56.91 15.25 C57.8 16.78, 58.56 18.41, 59.16 20.07 C59.76 21.73, 60.23 23.47, 60.54 25.2 C60.84 26.94, 60.92 29.62, 61 30.5 C61.08 31.38, 61.08 29.62, 61 30.5" stroke="#1e1e1e" stroke-width="2" fill="none"></path></g><g stroke-linecap="round" transform="translate(1118.5979126583463 158.49488345312852) rotate(0 30.5 30.5)"><path d="M61 30.5 C61 32.27, 60.84 34.06, 60.54 35.8 C60.23 37.53, 59.76 39.27, 59.16 40.93 C58.56 42.59, 57.8 44.22, 56.91 45.75 C56.03 47.28, 55 48.75, 53.86 50.11 C52.73 51.46, 51.46 52.73, 50.11 53.86 C48.75 55, 47.28 56.03, 45.75 56.91 C44.22 57.8, 42.59 58.56, 40.93 59.16 C39.27 59.76, 37.53 60.23, 35.8 60.54 C34.06 60.84, 32.27 61, 30.5 61 C28.73 61, 26.94 60.84, 25.2 60.54 C23.47 60.23, 21.73 59.76, 20.07 59.16 C18.41 58.56, 16.78 57.8, 15.25 56.91 C13.72 56.03, 12.25 55, 10.89 53.86 C9.54 52.73, 8.27 51.46, 7.14 50.11 C6 48.75, 4.97 47.28, 4.09 45.75 C3.2 44.22, 2.44 42.59, 1.84 40.93 C1.24 39.27, 0.77 37.53, 0.46 35.8 C0.16 34.06, 0 32.27, 0 30.5 C0 28.73, 0.16 26.94, 0.46 25.2 C0.77 23.47, 1.24 21.73, 1.84 20.07 C2.44 18.41, 3.2 16.78, 4.09 15.25 C4.97 13.72, 6 12.25, 7.14 10.89 C8.27 9.54, 9.54 8.27, 10.89 7.14 C12.25 6, 13.72 4.97, 15.25 4.09 C16.78 3.2, 18.41 2.44, 20.07 1.84 C21.73 1.24, 23.47 0.77, 25.2 0.46 C26.94 0.16, 28.73 0, 30.5 0 C32.27 0, 34.06 0.16, 35.8 0.46 C37.53 0.77, 39.27 1.24, 40.93 1.84 C42.59 2.44, 44.22 3.2, 45.75 4.09 C47.28 4.97, 48.75 6, 50.11 7.14 C51.46 8.27, 52.73 9.54, 53.86 10.89 C55 12.25, 56.03 13.72, 56.91 15.25 C57.8 16.78, 58.56 18.41, 59.16 20.07 C59.76 21.73, 60.23 23.47, 60.54 25.2 C60.84 26.94, 60.92 29.62, 61 30.5 C61.08 31.38, 61.08 29.62, 61 30.5" stroke="#1e1e1e" stroke-width="2" fill="none"></path></g><g stroke-linecap="round" transform="translate(1355.2851936270156 158.49488345312852) rotate(0 30.5 30.5)"><path d="M61 30.5 C61 32.27, 60.84 34.06, 60.54 35.8 C60.23 37.53, 59.76 39.27, 59.16 40.93 C58.56 42.59, 57.8 44.22, 56.91 45.75 C56.03 47.28, 55 48.75, 53.86 50.11 C52.73 51.46, 51.46 52.73, 50.11 53.86 C48.75 55, 47.28 56.03, 45.75 56.91 C44.22 57.8, 42.59 58.56, 40.93 59.16 C39.27 59.76, 37.53 60.23, 35.8 60.54 C34.06 60.84, 32.27 61, 30.5 61 C28.73 61, 26.94 60.84, 25.2 60.54 C23.47 60.23, 21.73 59.76, 20.07 59.16 C18.41 58.56, 16.78 57.8, 15.25 56.91 C13.72 56.03, 12.25 55, 10.89 53.86 C9.54 52.73, 8.27 51.46, 7.14 50.11 C6 48.75, 4.97 47.28, 4.09 45.75 C3.2 44.22, 2.44 42.59, 1.84 40.93 C1.24 39.27, 0.77 37.53, 0.46 35.8 C0.16 34.06, 0 32.27, 0 30.5 C0 28.73, 0.16 26.94, 0.46 25.2 C0.77 23.47, 1.24 21.73, 1.84 20.07 C2.44 18.41, 3.2 16.78, 4.09 15.25 C4.97 13.72, 6 12.25, 7.14 10.89 C8.27 9.54, 9.54 8.27, 10.89 7.14 C12.25 6, 13.72 4.97, 15.25 4.09 C16.78 3.2, 18.41 2.44, 20.07 1.84 C21.73 1.24, 23.47 0.77, 25.2 0.46 C26.94 0.16, 28.73 0, 30.5 0 C32.27 0, 34.06 0.16, 35.8 0.46 C37.53 0.77, 39.27 1.24, 40.93 1.84 C42.59 2.44, 44.22 3.2, 45.75 4.09 C47.28 4.97, 48.75 6, 50.11 7.14 C51.46 8.27, 52.73 9.54, 53.86 10.89 C55 12.25, 56.03 13.72, 56.91 15.25 C57.8 16.78, 58.56 18.41, 59.16 20.07 C59.76 21.73, 60.23 23.47, 60.54 25.2 C60.84 26.94, 60.92 29.62, 61 30.5 C61.08 31.38, 61.08 29.62, 61 30.5" stroke="none" stroke-width="0" fill="#ffc9c9"></path><path d="M61 30.5 C61 32.27, 60.84 34.06, 60.54 35.8 C60.23 37.53, 59.76 39.27, 59.16 40.93 C58.56 42.59, 57.8 44.22, 56.91 45.75 C56.03 47.28, 55 48.75, 53.86 50.11 C52.73 51.46, 51.46 52.73, 50.11 53.86 C48.75 55, 47.28 56.03, 45.75 56.91 C44.22 57.8, 42.59 58.56, 40.93 59.16 C39.27 59.76, 37.53 60.23, 35.8 60.54 C34.06 60.84, 32.27 61, 30.5 61 C28.73 61, 26.94 60.84, 25.2 60.54 C23.47 60.23, 21.73 59.76, 20.07 59.16 C18.41 58.56, 16.78 57.8, 15.25 56.91 C13.72 56.03, 12.25 55, 10.89 53.86 C9.54 52.73, 8.27 51.46, 7.14 50.11 C6 48.75, 4.97 47.28, 4.09 45.75 C3.2 44.22, 2.44 42.59, 1.84 40.93 C1.24 39.27, 0.77 37.53, 0.46 35.8 C0.16 34.06, 0 32.27, 0 30.5 C0 28.73, 0.16 26.94, 0.46 25.2 C0.77 23.47, 1.24 21.73, 1.84 20.07 C2.44 18.41, 3.2 16.78, 4.09 15.25 C4.97 13.72, 6 12.25, 7.14 10.89 C8.27 9.54, 9.54 8.27, 10.89 7.14 C12.25 6, 13.72 4.97, 15.25 4.09 C16.78 3.2, 18.41 2.44, 20.07 1.84 C21.73 1.24, 23.47 0.77, 25.2 0.46 C26.94 0.16, 28.73 0, 30.5 0 C32.27 0, 34.06 0.16, 35.8 0.46 C37.53 0.77, 39.27 1.24, 40.93 1.84 C42.59 2.44, 44.22 3.2, 45.75 4.09 C47.28 4.97, 48.75 6, 50.11 7.14 C51.46 8.27, 52.73 9.54, 53.86 10.89 C55 12.25, 56.03 13.72, 56.91 15.25 C57.8 16.78, 58.56 18.41, 59.16 20.07 C59.76 21.73, 60.23 23.47, 60.54 25.2 C60.84 26.94, 60.92 29.62, 61 30.5 C61.08 31.38, 61.08 29.62, 61 30.5" stroke="#1e1e1e" stroke-width="2" fill="none"></path></g><g stroke-linecap="round" transform="translate(770.5979126583463 297.18278872666855) rotate(0 30.5 30.5)"><path d="M61 30.5 C61 32.27, 60.84 34.06, 60.54 35.8 C60.23 37.53, 59.76 39.27, 59.16 40.93 C58.56 42.59, 57.8 44.22, 56.91 45.75 C56.03 47.28, 55 48.75, 53.86 50.11 C52.73 51.46, 51.46 52.73, 50.11 53.86 C48.75 55, 47.28 56.03, 45.75 56.91 C44.22 57.8, 42.59 58.56, 40.93 59.16 C39.27 59.76, 37.53 60.23, 35.8 60.54 C34.06 60.84, 32.27 61, 30.5 61 C28.73 61, 26.94 60.84, 25.2 60.54 C23.47 60.23, 21.73 59.76, 20.07 59.16 C18.41 58.56, 16.78 57.8, 15.25 56.91 C13.72 56.03, 12.25 55, 10.89 53.86 C9.54 52.73, 8.27 51.46, 7.14 50.11 C6 48.75, 4.97 47.28, 4.09 45.75 C3.2 44.22, 2.44 42.59, 1.84 40.93 C1.24 39.27, 0.77 37.53, 0.46 35.8 C0.16 34.06, 0 32.27, 0 30.5 C0 28.73, 0.16 26.94, 0.46 25.2 C0.77 23.47, 1.24 21.73, 1.84 20.07 C2.44 18.41, 3.2 16.78, 4.09 15.25 C4.97 13.72, 6 12.25, 7.14 10.89 C8.27 9.54, 9.54 8.27, 10.89 7.14 C12.25 6, 13.72 4.97, 15.25 4.09 C16.78 3.2, 18.41 2.44, 20.07 1.84 C21.73 1.24, 23.47 0.77, 25.2 0.46 C26.94 0.16, 28.73 0, 30.5 0 C32.27 0, 34.06 0.16, 35.8 0.46 C37.53 0.77, 39.27 1.24, 40.93 1.84 C42.59 2.44, 44.22 3.2, 45.75 4.09 C47.28 4.97, 48.75 6, 50.11 7.14 C51.46 8.27, 52.73 9.54, 53.86 10.89 C55 12.25, 56.03 13.72, 56.91 15.25 C57.8 16.78, 58.56 18.41, 59.16 20.07 C59.76 21.73, 60.23 23.47, 60.54 25.2 C60.84 26.94, 60.92 29.62, 61 30.5 C61.08 31.38, 61.08 29.62, 61 30.5" stroke="#1e1e1e" stroke-width="2" fill="none"></path></g><g stroke-linecap="round" transform="translate(846.5979126583463 297.18278872666855) rotate(0 30.5 30.5)"><path d="M61 30.5 C61 32.27, 60.84 34.06, 60.54 35.8 C60.23 37.53, 59.76 39.27, 59.16 40.93 C58.56 42.59, 57.8 44.22, 56.91 45.75 C56.03 47.28, 55 48.75, 53.86 50.11 C52.73 51.46, 51.46 52.73, 50.11 53.86 C48.75 55, 47.28 56.03, 45.75 56.91 C44.22 57.8, 42.59 58.56, 40.93 59.16 C39.27 59.76, 37.53 60.23, 35.8 60.54 C34.06 60.84, 32.27 61, 30.5 61 C28.73 61, 26.94 60.84, 25.2 60.54 C23.47 60.23, 21.73 59.76, 20.07 59.16 C18.41 58.56, 16.78 57.8, 15.25 56.91 C13.72 56.03, 12.25 55, 10.89 53.86 C9.54 52.73, 8.27 51.46, 7.14 50.11 C6 48.75, 4.97 47.28, 4.09 45.75 C3.2 44.22, 2.44 42.59, 1.84 40.93 C1.24 39.27, 0.77 37.53, 0.46 35.8 C0.16 34.06, 0 32.27, 0 30.5 C0 28.73, 0.16 26.94, 0.46 25.2 C0.77 23.47, 1.24 21.73, 1.84 20.07 C2.44 18.41, 3.2 16.78, 4.09 15.25 C4.97 13.72, 6 12.25, 7.14 10.89 C8.27 9.54, 9.54 8.27, 10.89 7.14 C12.25 6, 13.72 4.97, 15.25 4.09 C16.78 3.2, 18.41 2.44, 20.07 1.84 C21.73 1.24, 23.47 0.77, 25.2 0.46 C26.94 0.16, 28.73 0, 30.5 0 C32.27 0, 34.06 0.16, 35.8 0.46 C37.53 0.77, 39.27 1.24, 40.93 1.84 C42.59 2.44, 44.22 3.2, 45.75 4.09 C47.28 4.97, 48.75 6, 50.11 7.14 C51.46 8.27, 52.73 9.54, 53.86 10.89 C55 12.25, 56.03 13.72, 56.91 15.25 C57.8 16.78, 58.56 18.41, 59.16 20.07 C59.76 21.73, 60.23 23.47, 60.54 25.2 C60.84 26.94, 60.92 29.62, 61 30.5 C61.08 31.38, 61.08 29.62, 61 30.5" stroke="#1e1e1e" stroke-width="2" fill="none"></path></g><g stroke-linecap="round" transform="translate(927.5979126583463 297.18278872666855) rotate(0 30.5 30.5)"><path d="M61 30.5 C61 32.27, 60.84 34.06, 60.54 35.8 C60.23 37.53, 59.76 39.27, 59.16 40.93 C58.56 42.59, 57.8 44.22, 56.91 45.75 C56.03 47.28, 55 48.75, 53.86 50.11 C52.73 51.46, 51.46 52.73, 50.11 53.86 C48.75 55, 47.28 56.03, 45.75 56.91 C44.22 57.8, 42.59 58.56, 40.93 59.16 C39.27 59.76, 37.53 60.23, 35.8 60.54 C34.06 60.84, 32.27 61, 30.5 61 C28.73 61, 26.94 60.84, 25.2 60.54 C23.47 60.23, 21.73 59.76, 20.07 59.16 C18.41 58.56, 16.78 57.8, 15.25 56.91 C13.72 56.03, 12.25 55, 10.89 53.86 C9.54 52.73, 8.27 51.46, 7.14 50.11 C6 48.75, 4.97 47.28, 4.09 45.75 C3.2 44.22, 2.44 42.59, 1.84 40.93 C1.24 39.27, 0.77 37.53, 0.46 35.8 C0.16 34.06, 0 32.27, 0 30.5 C0 28.73, 0.16 26.94, 0.46 25.2 C0.77 23.47, 1.24 21.73, 1.84 20.07 C2.44 18.41, 3.2 16.78, 4.09 15.25 C4.97 13.72, 6 12.25, 7.14 10.89 C8.27 9.54, 9.54 8.27, 10.89 7.14 C12.25 6, 13.72 4.97, 15.25 4.09 C16.78 3.2, 18.41 2.44, 20.07 1.84 C21.73 1.24, 23.47 0.77, 25.2 0.46 C26.94 0.16, 28.73 0, 30.5 0 C32.27 0, 34.06 0.16, 35.8 0.46 C37.53 0.77, 39.27 1.24, 40.93 1.84 C42.59 2.44, 44.22 3.2, 45.75 4.09 C47.28 4.97, 48.75 6, 50.11 7.14 C51.46 8.27, 52.73 9.54, 53.86 10.89 C55 12.25, 56.03 13.72, 56.91 15.25 C57.8 16.78, 58.56 18.41, 59.16 20.07 C59.76 21.73, 60.23 23.47, 60.54 25.2 C60.84 26.94, 60.92 29.62, 61 30.5 C61.08 31.38, 61.08 29.62, 61 30.5" stroke="#1e1e1e" stroke-width="2" fill="none"></path></g><g stroke-linecap="round" transform="translate(1049.5979126583463 297.18278872666855) rotate(0 30.5 30.5)"><path d="M61 30.5 C61 32.27, 60.84 34.06, 60.54 35.8 C60.23 37.53, 59.76 39.27, 59.16 40.93 C58.56 42.59, 57.8 44.22, 56.91 45.75 C56.03 47.28, 55 48.75, 53.86 50.11 C52.73 51.46, 51.46 52.73, 50.11 53.86 C48.75 55, 47.28 56.03, 45.75 56.91 C44.22 57.8, 42.59 58.56, 40.93 59.16 C39.27 59.76, 37.53 60.23, 35.8 60.54 C34.06 60.84, 32.27 61, 30.5 61 C28.73 61, 26.94 60.84, 25.2 60.54 C23.47 60.23, 21.73 59.76, 20.07 59.16 C18.41 58.56, 16.78 57.8, 15.25 56.91 C13.72 56.03, 12.25 55, 10.89 53.86 C9.54 52.73, 8.27 51.46, 7.14 50.11 C6 48.75, 4.97 47.28, 4.09 45.75 C3.2 44.22, 2.44 42.59, 1.84 40.93 C1.24 39.27, 0.77 37.53, 0.46 35.8 C0.16 34.06, 0 32.27, 0 30.5 C0 28.73, 0.16 26.94, 0.46 25.2 C0.77 23.47, 1.24 21.73, 1.84 20.07 C2.44 18.41, 3.2 16.78, 4.09 15.25 C4.97 13.72, 6 12.25, 7.14 10.89 C8.27 9.54, 9.54 8.27, 10.89 7.14 C12.25 6, 13.72 4.97, 15.25 4.09 C16.78 3.2, 18.41 2.44, 20.07 1.84 C21.73 1.24, 23.47 0.77, 25.2 0.46 C26.94 0.16, 28.73 0, 30.5 0 C32.27 0, 34.06 0.16, 35.8 0.46 C37.53 0.77, 39.27 1.24, 40.93 1.84 C42.59 2.44, 44.22 3.2, 45.75 4.09 C47.28 4.97, 48.75 6, 50.11 7.14 C51.46 8.27, 52.73 9.54, 53.86 10.89 C55 12.25, 56.03 13.72, 56.91 15.25 C57.8 16.78, 58.56 18.41, 59.16 20.07 C59.76 21.73, 60.23 23.47, 60.54 25.2 C60.84 26.94, 60.92 29.62, 61 30.5 C61.08 31.38, 61.08 29.62, 61 30.5" stroke="#1e1e1e" stroke-width="2" fill="none"></path></g><g stroke-linecap="round" transform="translate(1115.5979126583463 297.18278872666855) rotate(0 30.5 30.5)"><path d="M61 30.5 C61 32.27, 60.84 34.06, 60.54 35.8 C60.23 37.53, 59.76 39.27, 59.16 40.93 C58.56 42.59, 57.8 44.22, 56.91 45.75 C56.03 47.28, 55 48.75, 53.86 50.11 C52.73 51.46, 51.46 52.73, 50.11 53.86 C48.75 55, 47.28 56.03, 45.75 56.91 C44.22 57.8, 42.59 58.56, 40.93 59.16 C39.27 59.76, 37.53 60.23, 35.8 60.54 C34.06 60.84, 32.27 61, 30.5 61 C28.73 61, 26.94 60.84, 25.2 60.54 C23.47 60.23, 21.73 59.76, 20.07 59.16 C18.41 58.56, 16.78 57.8, 15.25 56.91 C13.72 56.03, 12.25 55, 10.89 53.86 C9.54 52.73, 8.27 51.46, 7.14 50.11 C6 48.75, 4.97 47.28, 4.09 45.75 C3.2 44.22, 2.44 42.59, 1.84 40.93 C1.24 39.27, 0.77 37.53, 0.46 35.8 C0.16 34.06, 0 32.27, 0 30.5 C0 28.73, 0.16 26.94, 0.46 25.2 C0.77 23.47, 1.24 21.73, 1.84 20.07 C2.44 18.41, 3.2 16.78, 4.09 15.25 C4.97 13.72, 6 12.25, 7.14 10.89 C8.27 9.54, 9.54 8.27, 10.89 7.14 C12.25 6, 13.72 4.97, 15.25 4.09 C16.78 3.2, 18.41 2.44, 20.07 1.84 C21.73 1.24, 23.47 0.77, 25.2 0.46 C26.94 0.16, 28.73 0, 30.5 0 C32.27 0, 34.06 0.16, 35.8 0.46 C37.53 0.77, 39.27 1.24, 40.93 1.84 C42.59 2.44, 44.22 3.2, 45.75 4.09 C47.28 4.97, 48.75 6, 50.11 7.14 C51.46 8.27, 52.73 9.54, 53.86 10.89 C55 12.25, 56.03 13.72, 56.91 15.25 C57.8 16.78, 58.56 18.41, 59.16 20.07 C59.76 21.73, 60.23 23.47, 60.54 25.2 C60.84 26.94, 60.92 29.62, 61 30.5 C61.08 31.38, 61.08 29.62, 61 30.5" stroke="#1e1e1e" stroke-width="2" fill="none"></path></g><g stroke-linecap="round" transform="translate(1185.5979126583463 297.18278872666855) rotate(0 30.5 30.5)"><path d="M61 30.5 C61 32.27, 60.84 34.06, 60.54 35.8 C60.23 37.53, 59.76 39.27, 59.16 40.93 C58.56 42.59, 57.8 44.22, 56.91 45.75 C56.03 47.28, 55 48.75, 53.86 50.11 C52.73 51.46, 51.46 52.73, 50.11 53.86 C48.75 55, 47.28 56.03, 45.75 56.91 C44.22 57.8, 42.59 58.56, 40.93 59.16 C39.27 59.76, 37.53 60.23, 35.8 60.54 C34.06 60.84, 32.27 61, 30.5 61 C28.73 61, 26.94 60.84, 25.2 60.54 C23.47 60.23, 21.73 59.76, 20.07 59.16 C18.41 58.56, 16.78 57.8, 15.25 56.91 C13.72 56.03, 12.25 55, 10.89 53.86 C9.54 52.73, 8.27 51.46, 7.14 50.11 C6 48.75, 4.97 47.28, 4.09 45.75 C3.2 44.22, 2.44 42.59, 1.84 40.93 C1.24 39.27, 0.77 37.53, 0.46 35.8 C0.16 34.06, 0 32.27, 0 30.5 C0 28.73, 0.16 26.94, 0.46 25.2 C0.77 23.47, 1.24 21.73, 1.84 20.07 C2.44 18.41, 3.2 16.78, 4.09 15.25 C4.97 13.72, 6 12.25, 7.14 10.89 C8.27 9.54, 9.54 8.27, 10.89 7.14 C12.25 6, 13.72 4.97, 15.25 4.09 C16.78 3.2, 18.41 2.44, 20.07 1.84 C21.73 1.24, 23.47 0.77, 25.2 0.46 C26.94 0.16, 28.73 0, 30.5 0 C32.27 0, 34.06 0.16, 35.8 0.46 C37.53 0.77, 39.27 1.24, 40.93 1.84 C42.59 2.44, 44.22 3.2, 45.75 4.09 C47.28 4.97, 48.75 6, 50.11 7.14 C51.46 8.27, 52.73 9.54, 53.86 10.89 C55 12.25, 56.03 13.72, 56.91 15.25 C57.8 16.78, 58.56 18.41, 59.16 20.07 C59.76 21.73, 60.23 23.47, 60.54 25.2 C60.84 26.94, 60.92 29.62, 61 30.5 C61.08 31.38, 61.08 29.62, 61 30.5" stroke="#1e1e1e" stroke-width="2" fill="none"></path></g><g stroke-linecap="round" transform="translate(1290.2851936270156 297.18278872666855) rotate(0 30.5 30.5)"><path d="M61 30.5 C61 32.27, 60.84 34.06, 60.54 35.8 C60.23 37.53, 59.76 39.27, 59.16 40.93 C58.56 42.59, 57.8 44.22, 56.91 45.75 C56.03 47.28, 55 48.75, 53.86 50.11 C52.73 51.46, 51.46 52.73, 50.11 53.86 C48.75 55, 47.28 56.03, 45.75 56.91 C44.22 57.8, 42.59 58.56, 40.93 59.16 C39.27 59.76, 37.53 60.23, 35.8 60.54 C34.06 60.84, 32.27 61, 30.5 61 C28.73 61, 26.94 60.84, 25.2 60.54 C23.47 60.23, 21.73 59.76, 20.07 59.16 C18.41 58.56, 16.78 57.8, 15.25 56.91 C13.72 56.03, 12.25 55, 10.89 53.86 C9.54 52.73, 8.27 51.46, 7.14 50.11 C6 48.75, 4.97 47.28, 4.09 45.75 C3.2 44.22, 2.44 42.59, 1.84 40.93 C1.24 39.27, 0.77 37.53, 0.46 35.8 C0.16 34.06, 0 32.27, 0 30.5 C0 28.73, 0.16 26.94, 0.46 25.2 C0.77 23.47, 1.24 21.73, 1.84 20.07 C2.44 18.41, 3.2 16.78, 4.09 15.25 C4.97 13.72, 6 12.25, 7.14 10.89 C8.27 9.54, 9.54 8.27, 10.89 7.14 C12.25 6, 13.72 4.97, 15.25 4.09 C16.78 3.2, 18.41 2.44, 20.07 1.84 C21.73 1.24, 23.47 0.77, 25.2 0.46 C26.94 0.16, 28.73 0, 30.5 0 C32.27 0, 34.06 0.16, 35.8 0.46 C37.53 0.77, 39.27 1.24, 40.93 1.84 C42.59 2.44, 44.22 3.2, 45.75 4.09 C47.28 4.97, 48.75 6, 50.11 7.14 C51.46 8.27, 52.73 9.54, 53.86 10.89 C55 12.25, 56.03 13.72, 56.91 15.25 C57.8 16.78, 58.56 18.41, 59.16 20.07 C59.76 21.73, 60.23 23.47, 60.54 25.2 C60.84 26.94, 60.92 29.62, 61 30.5 C61.08 31.38, 61.08 29.62, 61 30.5" stroke="#1e1e1e" stroke-width="2" fill="none"></path></g><g stroke-linecap="round" transform="translate(1360.2851936270156 297.18278872666855) rotate(0 30.5 30.5)"><path d="M61 30.5 C61 32.27, 60.84 34.06, 60.54 35.8 C60.23 37.53, 59.76 39.27, 59.16 40.93 C58.56 42.59, 57.8 44.22, 56.91 45.75 C56.03 47.28, 55 48.75, 53.86 50.11 C52.73 51.46, 51.46 52.73, 50.11 53.86 C48.75 55, 47.28 56.03, 45.75 56.91 C44.22 57.8, 42.59 58.56, 40.93 59.16 C39.27 59.76, 37.53 60.23, 35.8 60.54 C34.06 60.84, 32.27 61, 30.5 61 C28.73 61, 26.94 60.84, 25.2 60.54 C23.47 60.23, 21.73 59.76, 20.07 59.16 C18.41 58.56, 16.78 57.8, 15.25 56.91 C13.72 56.03, 12.25 55, 10.89 53.86 C9.54 52.73, 8.27 51.46, 7.14 50.11 C6 48.75, 4.97 47.28, 4.09 45.75 C3.2 44.22, 2.44 42.59, 1.84 40.93 C1.24 39.27, 0.77 37.53, 0.46 35.8 C0.16 34.06, 0 32.27, 0 30.5 C0 28.73, 0.16 26.94, 0.46 25.2 C0.77 23.47, 1.24 21.73, 1.84 20.07 C2.44 18.41, 3.2 16.78, 4.09 15.25 C4.97 13.72, 6 12.25, 7.14 10.89 C8.27 9.54, 9.54 8.27, 10.89 7.14 C12.25 6, 13.72 4.97, 15.25 4.09 C16.78 3.2, 18.41 2.44, 20.07 1.84 C21.73 1.24, 23.47 0.77, 25.2 0.46 C26.94 0.16, 28.73 0, 30.5 0 C32.27 0, 34.06 0.16, 35.8 0.46 C37.53 0.77, 39.27 1.24, 40.93 1.84 C42.59 2.44, 44.22 3.2, 45.75 4.09 C47.28 4.97, 48.75 6, 50.11 7.14 C51.46 8.27, 52.73 9.54, 53.86 10.89 C55 12.25, 56.03 13.72, 56.91 15.25 C57.8 16.78, 58.56 18.41, 59.16 20.07 C59.76 21.73, 60.23 23.47, 60.54 25.2 C60.84 26.94, 60.92 29.62, 61 30.5 C61.08 31.38, 61.08 29.62, 61 30.5" stroke="#1e1e1e" stroke-width="2" fill="none"></path></g><g stroke-linecap="round" transform="translate(1445.2851936270156 297.18278872666855) rotate(0 30.5 30.5)"><path d="M61 30.5 C61 32.27, 60.84 34.06, 60.54 35.8 C60.23 37.53, 59.76 39.27, 59.16 40.93 C58.56 42.59, 57.8 44.22, 56.91 45.75 C56.03 47.28, 55 48.75, 53.86 50.11 C52.73 51.46, 51.46 52.73, 50.11 53.86 C48.75 55, 47.28 56.03, 45.75 56.91 C44.22 57.8, 42.59 58.56, 40.93 59.16 C39.27 59.76, 37.53 60.23, 35.8 60.54 C34.06 60.84, 32.27 61, 30.5 61 C28.73 61, 26.94 60.84, 25.2 60.54 C23.47 60.23, 21.73 59.76, 20.07 59.16 C18.41 58.56, 16.78 57.8, 15.25 56.91 C13.72 56.03, 12.25 55, 10.89 53.86 C9.54 52.73, 8.27 51.46, 7.14 50.11 C6 48.75, 4.97 47.28, 4.09 45.75 C3.2 44.22, 2.44 42.59, 1.84 40.93 C1.24 39.27, 0.77 37.53, 0.46 35.8 C0.16 34.06, 0 32.27, 0 30.5 C0 28.73, 0.16 26.94, 0.46 25.2 C0.77 23.47, 1.24 21.73, 1.84 20.07 C2.44 18.41, 3.2 16.78, 4.09 15.25 C4.97 13.72, 6 12.25, 7.14 10.89 C8.27 9.54, 9.54 8.27, 10.89 7.14 C12.25 6, 13.72 4.97, 15.25 4.09 C16.78 3.2, 18.41 2.44, 20.07 1.84 C21.73 1.24, 23.47 0.77, 25.2 0.46 C26.94 0.16, 28.73 0, 30.5 0 C32.27 0, 34.06 0.16, 35.8 0.46 C37.53 0.77, 39.27 1.24, 40.93 1.84 C42.59 2.44, 44.22 3.2, 45.75 4.09 C47.28 4.97, 48.75 6, 50.11 7.14 C51.46 8.27, 52.73 9.54, 53.86 10.89 C55 12.25, 56.03 13.72, 56.91 15.25 C57.8 16.78, 58.56 18.41, 59.16 20.07 C59.76 21.73, 60.23 23.47, 60.54 25.2 C60.84 26.94, 60.92 29.62, 61 30.5 C61.08 31.38, 61.08 29.62, 61 30.5" stroke="#1e1e1e" stroke-width="2" fill="none"></path></g><g stroke-linecap="round"><g transform="translate(1124.3701700711304 65.65837391930938) rotate(0 -97.65319107204954 50.432811825227446)"><path d="M0 0 C-62.81 32.44, -125.62 64.88, -195.31 100.87 M0 0 C-65.46 33.81, -130.93 67.62, -195.31 100.87" stroke="#1e1e1e" stroke-width="2" fill="none"></path></g></g><mask></mask><g stroke-linecap="round"><g transform="translate(1189.6780094840867 67.52241042952278) rotate(0 83.7402734365269 48.661392063395056)"><path d="M0 0 C60.6 35.21, 121.19 70.42, 167.48 97.32 M0 0 C47.75 27.74, 95.49 55.49, 167.48 97.32" stroke="#1e1e1e" stroke-width="2" fill="none"></path></g></g><mask></mask><g stroke-linecap="round"><g transform="translate(1150.6657857026173 78.38683936356529) rotate(0 -0.4197007533628607 35.25486328247962)"><path d="M0 0 C-0.21 17.63, -0.42 35.26, -0.84 70.51 M0 0 C-0.2 16.47, -0.39 32.94, -0.84 70.51" stroke="#1e1e1e" stroke-width="2" fill="none"></path></g></g><mask></mask><g stroke-linecap="round"><g transform="translate(879.5390990302146 221.9244970136608) rotate(0 -30.638154995488208 35.25486328247959)"><path d="M0 0 C-17.5 20.13, -34.99 40.27, -61.28 70.51 M0 0 C-14.71 16.93, -29.43 33.86, -61.28 70.51" stroke="#1e1e1e" stroke-width="2" fill="none"></path></g></g><mask></mask><g stroke-linecap="round"><g transform="translate(898.8453336849059 232.83671660109496) rotate(0 -8.3940150672571 27.70024972194824)"><path d="M0 0 C-3.38 11.16, -6.76 22.32, -16.79 55.4 M0 0 C-6.03 19.92, -12.07 39.83, -16.79 55.4" stroke="#1e1e1e" stroke-width="2" fill="none"></path></g></g><mask></mask><g stroke-linecap="round"><g transform="translate(918.9909698463227 230.3185120809178) rotate(0 13.85012486097412 30.218454242125347)"><path d="M0 0 C7.6 16.58, 15.2 33.16, 27.7 60.44 M0 0 C10.61 23.14, 21.21 46.28, 27.7 60.44" stroke="#1e1e1e" stroke-width="2" fill="none"></path></g></g><mask></mask><g stroke-linecap="round"><g transform="translate(1128.0019450210232 216.88808797330648) rotate(0 -20.14563616141686 37.773067802656726)"><path d="M0 0 C-13.45 25.22, -26.91 50.45, -40.29 75.55 M0 0 C-11.21 21.03, -22.43 42.05, -40.29 75.55" stroke="#1e1e1e" stroke-width="2" fill="none"></path></g></g><mask></mask><g stroke-linecap="round"><g transform="translate(1151.505187209343 222.76389852038642) rotate(0 -2.0985037668143036 33.576060269028204)"><path d="M0 0 C-1.14 18.25, -2.28 36.49, -4.2 67.15 M0 0 C-1.39 22.25, -2.78 44.5, -4.2 67.15" stroke="#1e1e1e" stroke-width="2" fill="none"></path></g></g><mask></mask><g stroke-linecap="round"><g transform="translate(1176.687232411114 214.36988345312943) rotate(0 15.948628627788423 39.871571569470944)"><path d="M0 0 C8.01 20.03, 16.02 40.05, 31.9 79.74 M0 0 C12.29 30.73, 24.59 61.47, 31.9 79.74" stroke="#1e1e1e" stroke-width="2" fill="none"></path></g></g><mask></mask><g stroke-linecap="round"><g transform="translate(1363.0343669042206 222.76389852038642) rotate(0 -16.788030134514145 38.19276855601956)"><path d="M0 0 C-7.26 16.53, -14.53 33.05, -33.58 76.39 M0 0 C-12.86 29.25, -25.72 58.5, -33.58 76.39" stroke="#1e1e1e" stroke-width="2" fill="none"></path></g></g><mask></mask><g stroke-linecap="round"><g transform="translate(1389.0558136127174 231.15791358764352) rotate(0 1.678803013451386 31.89725725557679)"><path d="M0 0 C1.01 19.27, 2.03 38.53, 3.36 63.79 M0 0 C0.69 13.12, 1.38 26.24, 3.36 63.79" stroke="#1e1e1e" stroke-width="2" fill="none"></path></g></g><mask></mask><g stroke-linecap="round"><g transform="translate(1410.8802527875857 222.76389852038642) rotate(0 25.182045201771132 36.09426478920531)"><path d="M0 0 C17.24 24.71, 34.48 49.42, 50.36 72.19 M0 0 C10.83 15.53, 21.67 31.06, 50.36 72.19" stroke="#1e1e1e" stroke-width="2" fill="none"></path></g></g><mask></mask><g stroke-linecap="round" transform="translate(1880.2494438790013 10) rotate(0 30.5 30.5)"><path d="M61 30.5 C61 32.27, 60.84 34.06, 60.54 35.8 C60.23 37.53, 59.76 39.27, 59.16 40.93 C58.56 42.59, 57.8 44.22, 56.91 45.75 C56.03 47.28, 55 48.75, 53.86 50.11 C52.73 51.46, 51.46 52.73, 50.11 53.86 C48.75 55, 47.28 56.03, 45.75 56.91 C44.22 57.8, 42.59 58.56, 40.93 59.16 C39.27 59.76, 37.53 60.23, 35.8 60.54 C34.06 60.84, 32.27 61, 30.5 61 C28.73 61, 26.94 60.84, 25.2 60.54 C23.47 60.23, 21.73 59.76, 20.07 59.16 C18.41 58.56, 16.78 57.8, 15.25 56.91 C13.72 56.03, 12.25 55, 10.89 53.86 C9.54 52.73, 8.27 51.46, 7.14 50.11 C6 48.75, 4.97 47.28, 4.09 45.75 C3.2 44.22, 2.44 42.59, 1.84 40.93 C1.24 39.27, 0.77 37.53, 0.46 35.8 C0.16 34.06, 0 32.27, 0 30.5 C0 28.73, 0.16 26.94, 0.46 25.2 C0.77 23.47, 1.24 21.73, 1.84 20.07 C2.44 18.41, 3.2 16.78, 4.09 15.25 C4.97 13.72, 6 12.25, 7.14 10.89 C8.27 9.54, 9.54 8.27, 10.89 7.14 C12.25 6, 13.72 4.97, 15.25 4.09 C16.78 3.2, 18.41 2.44, 20.07 1.84 C21.73 1.24, 23.47 0.77, 25.2 0.46 C26.94 0.16, 28.73 0, 30.5 0 C32.27 0, 34.06 0.16, 35.8 0.46 C37.53 0.77, 39.27 1.24, 40.93 1.84 C42.59 2.44, 44.22 3.2, 45.75 4.09 C47.28 4.97, 48.75 6, 50.11 7.14 C51.46 8.27, 52.73 9.54, 53.86 10.89 C55 12.25, 56.03 13.72, 56.91 15.25 C57.8 16.78, 58.56 18.41, 59.16 20.07 C59.76 21.73, 60.23 23.47, 60.54 25.2 C60.84 26.94, 60.92 29.62, 61 30.5 C61.08 31.38, 61.08 29.62, 61 30.5" stroke="#1e1e1e" stroke-width="2" fill="none"></path></g><g stroke-linecap="round" transform="translate(1630.2910886862537 155.35922712106253) rotate(0 30.5 30.5)"><path d="M61 30.5 C61 32.27, 60.84 34.06, 60.54 35.8 C60.23 37.53, 59.76 39.27, 59.16 40.93 C58.56 42.59, 57.8 44.22, 56.91 45.75 C56.03 47.28, 55 48.75, 53.86 50.11 C52.73 51.46, 51.46 52.73, 50.11 53.86 C48.75 55, 47.28 56.03, 45.75 56.91 C44.22 57.8, 42.59 58.56, 40.93 59.16 C39.27 59.76, 37.53 60.23, 35.8 60.54 C34.06 60.84, 32.27 61, 30.5 61 C28.73 61, 26.94 60.84, 25.2 60.54 C23.47 60.23, 21.73 59.76, 20.07 59.16 C18.41 58.56, 16.78 57.8, 15.25 56.91 C13.72 56.03, 12.25 55, 10.89 53.86 C9.54 52.73, 8.27 51.46, 7.14 50.11 C6 48.75, 4.97 47.28, 4.09 45.75 C3.2 44.22, 2.44 42.59, 1.84 40.93 C1.24 39.27, 0.77 37.53, 0.46 35.8 C0.16 34.06, 0 32.27, 0 30.5 C0 28.73, 0.16 26.94, 0.46 25.2 C0.77 23.47, 1.24 21.73, 1.84 20.07 C2.44 18.41, 3.2 16.78, 4.09 15.25 C4.97 13.72, 6 12.25, 7.14 10.89 C8.27 9.54, 9.54 8.27, 10.89 7.14 C12.25 6, 13.72 4.97, 15.25 4.09 C16.78 3.2, 18.41 2.44, 20.07 1.84 C21.73 1.24, 23.47 0.77, 25.2 0.46 C26.94 0.16, 28.73 0, 30.5 0 C32.27 0, 34.06 0.16, 35.8 0.46 C37.53 0.77, 39.27 1.24, 40.93 1.84 C42.59 2.44, 44.22 3.2, 45.75 4.09 C47.28 4.97, 48.75 6, 50.11 7.14 C51.46 8.27, 52.73 9.54, 53.86 10.89 C55 12.25, 56.03 13.72, 56.91 15.25 C57.8 16.78, 58.56 18.41, 59.16 20.07 C59.76 21.73, 60.23 23.47, 60.54 25.2 C60.84 26.94, 60.92 29.62, 61 30.5 C61.08 31.38, 61.08 29.62, 61 30.5" stroke="#1e1e1e" stroke-width="2" fill="none"></path></g><g stroke-linecap="round" transform="translate(1874.2910886862537 155.35922712106253) rotate(0 30.5 30.5)"><path d="M61 30.5 C61 32.27, 60.84 34.06, 60.54 35.8 C60.23 37.53, 59.76 39.27, 59.16 40.93 C58.56 42.59, 57.8 44.22, 56.91 45.75 C56.03 47.28, 55 48.75, 53.86 50.11 C52.73 51.46, 51.46 52.73, 50.11 53.86 C48.75 55, 47.28 56.03, 45.75 56.91 C44.22 57.8, 42.59 58.56, 40.93 59.16 C39.27 59.76, 37.53 60.23, 35.8 60.54 C34.06 60.84, 32.27 61, 30.5 61 C28.73 61, 26.94 60.84, 25.2 60.54 C23.47 60.23, 21.73 59.76, 20.07 59.16 C18.41 58.56, 16.78 57.8, 15.25 56.91 C13.72 56.03, 12.25 55, 10.89 53.86 C9.54 52.73, 8.27 51.46, 7.14 50.11 C6 48.75, 4.97 47.28, 4.09 45.75 C3.2 44.22, 2.44 42.59, 1.84 40.93 C1.24 39.27, 0.77 37.53, 0.46 35.8 C0.16 34.06, 0 32.27, 0 30.5 C0 28.73, 0.16 26.94, 0.46 25.2 C0.77 23.47, 1.24 21.73, 1.84 20.07 C2.44 18.41, 3.2 16.78, 4.09 15.25 C4.97 13.72, 6 12.25, 7.14 10.89 C8.27 9.54, 9.54 8.27, 10.89 7.14 C12.25 6, 13.72 4.97, 15.25 4.09 C16.78 3.2, 18.41 2.44, 20.07 1.84 C21.73 1.24, 23.47 0.77, 25.2 0.46 C26.94 0.16, 28.73 0, 30.5 0 C32.27 0, 34.06 0.16, 35.8 0.46 C37.53 0.77, 39.27 1.24, 40.93 1.84 C42.59 2.44, 44.22 3.2, 45.75 4.09 C47.28 4.97, 48.75 6, 50.11 7.14 C51.46 8.27, 52.73 9.54, 53.86 10.89 C55 12.25, 56.03 13.72, 56.91 15.25 C57.8 16.78, 58.56 18.41, 59.16 20.07 C59.76 21.73, 60.23 23.47, 60.54 25.2 C60.84 26.94, 60.92 29.62, 61 30.5 C61.08 31.38, 61.08 29.62, 61 30.5" stroke="none" stroke-width="0" fill="#ffc9c9"></path><path d="M61 30.5 C61 32.27, 60.84 34.06, 60.54 35.8 C60.23 37.53, 59.76 39.27, 59.16 40.93 C58.56 42.59, 57.8 44.22, 56.91 45.75 C56.03 47.28, 55 48.75, 53.86 50.11 C52.73 51.46, 51.46 52.73, 50.11 53.86 C48.75 55, 47.28 56.03, 45.75 56.91 C44.22 57.8, 42.59 58.56, 40.93 59.16 C39.27 59.76, 37.53 60.23, 35.8 60.54 C34.06 60.84, 32.27 61, 30.5 61 C28.73 61, 26.94 60.84, 25.2 60.54 C23.47 60.23, 21.73 59.76, 20.07 59.16 C18.41 58.56, 16.78 57.8, 15.25 56.91 C13.72 56.03, 12.25 55, 10.89 53.86 C9.54 52.73, 8.27 51.46, 7.14 50.11 C6 48.75, 4.97 47.28, 4.09 45.75 C3.2 44.22, 2.44 42.59, 1.84 40.93 C1.24 39.27, 0.77 37.53, 0.46 35.8 C0.16 34.06, 0 32.27, 0 30.5 C0 28.73, 0.16 26.94, 0.46 25.2 C0.77 23.47, 1.24 21.73, 1.84 20.07 C2.44 18.41, 3.2 16.78, 4.09 15.25 C4.97 13.72, 6 12.25, 7.14 10.89 C8.27 9.54, 9.54 8.27, 10.89 7.14 C12.25 6, 13.72 4.97, 15.25 4.09 C16.78 3.2, 18.41 2.44, 20.07 1.84 C21.73 1.24, 23.47 0.77, 25.2 0.46 C26.94 0.16, 28.73 0, 30.5 0 C32.27 0, 34.06 0.16, 35.8 0.46 C37.53 0.77, 39.27 1.24, 40.93 1.84 C42.59 2.44, 44.22 3.2, 45.75 4.09 C47.28 4.97, 48.75 6, 50.11 7.14 C51.46 8.27, 52.73 9.54, 53.86 10.89 C55 12.25, 56.03 13.72, 56.91 15.25 C57.8 16.78, 58.56 18.41, 59.16 20.07 C59.76 21.73, 60.23 23.47, 60.54 25.2 C60.84 26.94, 60.92 29.62, 61 30.5 C61.08 31.38, 61.08 29.62, 61 30.5" stroke="#1e1e1e" stroke-width="2" fill="none"></path></g><g stroke-linecap="round" transform="translate(2110.978369654923 155.35922712106253) rotate(0 30.5 30.5)"><path d="M61 30.5 C61 32.27, 60.84 34.06, 60.54 35.8 C60.23 37.53, 59.76 39.27, 59.16 40.93 C58.56 42.59, 57.8 44.22, 56.91 45.75 C56.03 47.28, 55 48.75, 53.86 50.11 C52.73 51.46, 51.46 52.73, 50.11 53.86 C48.75 55, 47.28 56.03, 45.75 56.91 C44.22 57.8, 42.59 58.56, 40.93 59.16 C39.27 59.76, 37.53 60.23, 35.8 60.54 C34.06 60.84, 32.27 61, 30.5 61 C28.73 61, 26.94 60.84, 25.2 60.54 C23.47 60.23, 21.73 59.76, 20.07 59.16 C18.41 58.56, 16.78 57.8, 15.25 56.91 C13.72 56.03, 12.25 55, 10.89 53.86 C9.54 52.73, 8.27 51.46, 7.14 50.11 C6 48.75, 4.97 47.28, 4.09 45.75 C3.2 44.22, 2.44 42.59, 1.84 40.93 C1.24 39.27, 0.77 37.53, 0.46 35.8 C0.16 34.06, 0 32.27, 0 30.5 C0 28.73, 0.16 26.94, 0.46 25.2 C0.77 23.47, 1.24 21.73, 1.84 20.07 C2.44 18.41, 3.2 16.78, 4.09 15.25 C4.97 13.72, 6 12.25, 7.14 10.89 C8.27 9.54, 9.54 8.27, 10.89 7.14 C12.25 6, 13.72 4.97, 15.25 4.09 C16.78 3.2, 18.41 2.44, 20.07 1.84 C21.73 1.24, 23.47 0.77, 25.2 0.46 C26.94 0.16, 28.73 0, 30.5 0 C32.27 0, 34.06 0.16, 35.8 0.46 C37.53 0.77, 39.27 1.24, 40.93 1.84 C42.59 2.44, 44.22 3.2, 45.75 4.09 C47.28 4.97, 48.75 6, 50.11 7.14 C51.46 8.27, 52.73 9.54, 53.86 10.89 C55 12.25, 56.03 13.72, 56.91 15.25 C57.8 16.78, 58.56 18.41, 59.16 20.07 C59.76 21.73, 60.23 23.47, 60.54 25.2 C60.84 26.94, 60.92 29.62, 61 30.5 C61.08 31.38, 61.08 29.62, 61 30.5" stroke="#1e1e1e" stroke-width="2" fill="none"></path></g><g stroke-linecap="round" transform="translate(1526.2910886862537 294.04713239460256) rotate(0 30.5 30.5)"><path d="M61 30.5 C61 32.27, 60.84 34.06, 60.54 35.8 C60.23 37.53, 59.76 39.27, 59.16 40.93 C58.56 42.59, 57.8 44.22, 56.91 45.75 C56.03 47.28, 55 48.75, 53.86 50.11 C52.73 51.46, 51.46 52.73, 50.11 53.86 C48.75 55, 47.28 56.03, 45.75 56.91 C44.22 57.8, 42.59 58.56, 40.93 59.16 C39.27 59.76, 37.53 60.23, 35.8 60.54 C34.06 60.84, 32.27 61, 30.5 61 C28.73 61, 26.94 60.84, 25.2 60.54 C23.47 60.23, 21.73 59.76, 20.07 59.16 C18.41 58.56, 16.78 57.8, 15.25 56.91 C13.72 56.03, 12.25 55, 10.89 53.86 C9.54 52.73, 8.27 51.46, 7.14 50.11 C6 48.75, 4.97 47.28, 4.09 45.75 C3.2 44.22, 2.44 42.59, 1.84 40.93 C1.24 39.27, 0.77 37.53, 0.46 35.8 C0.16 34.06, 0 32.27, 0 30.5 C0 28.73, 0.16 26.94, 0.46 25.2 C0.77 23.47, 1.24 21.73, 1.84 20.07 C2.44 18.41, 3.2 16.78, 4.09 15.25 C4.97 13.72, 6 12.25, 7.14 10.89 C8.27 9.54, 9.54 8.27, 10.89 7.14 C12.25 6, 13.72 4.97, 15.25 4.09 C16.78 3.2, 18.41 2.44, 20.07 1.84 C21.73 1.24, 23.47 0.77, 25.2 0.46 C26.94 0.16, 28.73 0, 30.5 0 C32.27 0, 34.06 0.16, 35.8 0.46 C37.53 0.77, 39.27 1.24, 40.93 1.84 C42.59 2.44, 44.22 3.2, 45.75 4.09 C47.28 4.97, 48.75 6, 50.11 7.14 C51.46 8.27, 52.73 9.54, 53.86 10.89 C55 12.25, 56.03 13.72, 56.91 15.25 C57.8 16.78, 58.56 18.41, 59.16 20.07 C59.76 21.73, 60.23 23.47, 60.54 25.2 C60.84 26.94, 60.92 29.62, 61 30.5 C61.08 31.38, 61.08 29.62, 61 30.5" stroke="#1e1e1e" stroke-width="2" fill="none"></path></g><g stroke-linecap="round" transform="translate(1602.2910886862537 294.04713239460256) rotate(0 30.5 30.5)"><path d="M61 30.5 C61 32.27, 60.84 34.06, 60.54 35.8 C60.23 37.53, 59.76 39.27, 59.16 40.93 C58.56 42.59, 57.8 44.22, 56.91 45.75 C56.03 47.28, 55 48.75, 53.86 50.11 C52.73 51.46, 51.46 52.73, 50.11 53.86 C48.75 55, 47.28 56.03, 45.75 56.91 C44.22 57.8, 42.59 58.56, 40.93 59.16 C39.27 59.76, 37.53 60.23, 35.8 60.54 C34.06 60.84, 32.27 61, 30.5 61 C28.73 61, 26.94 60.84, 25.2 60.54 C23.47 60.23, 21.73 59.76, 20.07 59.16 C18.41 58.56, 16.78 57.8, 15.25 56.91 C13.72 56.03, 12.25 55, 10.89 53.86 C9.54 52.73, 8.27 51.46, 7.14 50.11 C6 48.75, 4.97 47.28, 4.09 45.75 C3.2 44.22, 2.44 42.59, 1.84 40.93 C1.24 39.27, 0.77 37.53, 0.46 35.8 C0.16 34.06, 0 32.27, 0 30.5 C0 28.73, 0.16 26.94, 0.46 25.2 C0.77 23.47, 1.24 21.73, 1.84 20.07 C2.44 18.41, 3.2 16.78, 4.09 15.25 C4.97 13.72, 6 12.25, 7.14 10.89 C8.27 9.54, 9.54 8.27, 10.89 7.14 C12.25 6, 13.72 4.97, 15.25 4.09 C16.78 3.2, 18.41 2.44, 20.07 1.84 C21.73 1.24, 23.47 0.77, 25.2 0.46 C26.94 0.16, 28.73 0, 30.5 0 C32.27 0, 34.06 0.16, 35.8 0.46 C37.53 0.77, 39.27 1.24, 40.93 1.84 C42.59 2.44, 44.22 3.2, 45.75 4.09 C47.28 4.97, 48.75 6, 50.11 7.14 C51.46 8.27, 52.73 9.54, 53.86 10.89 C55 12.25, 56.03 13.72, 56.91 15.25 C57.8 16.78, 58.56 18.41, 59.16 20.07 C59.76 21.73, 60.23 23.47, 60.54 25.2 C60.84 26.94, 60.92 29.62, 61 30.5 C61.08 31.38, 61.08 29.62, 61 30.5" stroke="#1e1e1e" stroke-width="2" fill="none"></path></g><g stroke-linecap="round" transform="translate(1683.2910886862537 294.04713239460256) rotate(0 30.5 30.5)"><path d="M61 30.5 C61 32.27, 60.84 34.06, 60.54 35.8 C60.23 37.53, 59.76 39.27, 59.16 40.93 C58.56 42.59, 57.8 44.22, 56.91 45.75 C56.03 47.28, 55 48.75, 53.86 50.11 C52.73 51.46, 51.46 52.73, 50.11 53.86 C48.75 55, 47.28 56.03, 45.75 56.91 C44.22 57.8, 42.59 58.56, 40.93 59.16 C39.27 59.76, 37.53 60.23, 35.8 60.54 C34.06 60.84, 32.27 61, 30.5 61 C28.73 61, 26.94 60.84, 25.2 60.54 C23.47 60.23, 21.73 59.76, 20.07 59.16 C18.41 58.56, 16.78 57.8, 15.25 56.91 C13.72 56.03, 12.25 55, 10.89 53.86 C9.54 52.73, 8.27 51.46, 7.14 50.11 C6 48.75, 4.97 47.28, 4.09 45.75 C3.2 44.22, 2.44 42.59, 1.84 40.93 C1.24 39.27, 0.77 37.53, 0.46 35.8 C0.16 34.06, 0 32.27, 0 30.5 C0 28.73, 0.16 26.94, 0.46 25.2 C0.77 23.47, 1.24 21.73, 1.84 20.07 C2.44 18.41, 3.2 16.78, 4.09 15.25 C4.97 13.72, 6 12.25, 7.14 10.89 C8.27 9.54, 9.54 8.27, 10.89 7.14 C12.25 6, 13.72 4.97, 15.25 4.09 C16.78 3.2, 18.41 2.44, 20.07 1.84 C21.73 1.24, 23.47 0.77, 25.2 0.46 C26.94 0.16, 28.73 0, 30.5 0 C32.27 0, 34.06 0.16, 35.8 0.46 C37.53 0.77, 39.27 1.24, 40.93 1.84 C42.59 2.44, 44.22 3.2, 45.75 4.09 C47.28 4.97, 48.75 6, 50.11 7.14 C51.46 8.27, 52.73 9.54, 53.86 10.89 C55 12.25, 56.03 13.72, 56.91 15.25 C57.8 16.78, 58.56 18.41, 59.16 20.07 C59.76 21.73, 60.23 23.47, 60.54 25.2 C60.84 26.94, 60.92 29.62, 61 30.5 C61.08 31.38, 61.08 29.62, 61 30.5" stroke="#1e1e1e" stroke-width="2" fill="none"></path></g><g stroke-linecap="round" transform="translate(1805.2910886862537 294.04713239460256) rotate(0 30.5 30.5)"><path d="M61 30.5 C61 32.27, 60.84 34.06, 60.54 35.8 C60.23 37.53, 59.76 39.27, 59.16 40.93 C58.56 42.59, 57.8 44.22, 56.91 45.75 C56.03 47.28, 55 48.75, 53.86 50.11 C52.73 51.46, 51.46 52.73, 50.11 53.86 C48.75 55, 47.28 56.03, 45.75 56.91 C44.22 57.8, 42.59 58.56, 40.93 59.16 C39.27 59.76, 37.53 60.23, 35.8 60.54 C34.06 60.84, 32.27 61, 30.5 61 C28.73 61, 26.94 60.84, 25.2 60.54 C23.47 60.23, 21.73 59.76, 20.07 59.16 C18.41 58.56, 16.78 57.8, 15.25 56.91 C13.72 56.03, 12.25 55, 10.89 53.86 C9.54 52.73, 8.27 51.46, 7.14 50.11 C6 48.75, 4.97 47.28, 4.09 45.75 C3.2 44.22, 2.44 42.59, 1.84 40.93 C1.24 39.27, 0.77 37.53, 0.46 35.8 C0.16 34.06, 0 32.27, 0 30.5 C0 28.73, 0.16 26.94, 0.46 25.2 C0.77 23.47, 1.24 21.73, 1.84 20.07 C2.44 18.41, 3.2 16.78, 4.09 15.25 C4.97 13.72, 6 12.25, 7.14 10.89 C8.27 9.54, 9.54 8.27, 10.89 7.14 C12.25 6, 13.72 4.97, 15.25 4.09 C16.78 3.2, 18.41 2.44, 20.07 1.84 C21.73 1.24, 23.47 0.77, 25.2 0.46 C26.94 0.16, 28.73 0, 30.5 0 C32.27 0, 34.06 0.16, 35.8 0.46 C37.53 0.77, 39.27 1.24, 40.93 1.84 C42.59 2.44, 44.22 3.2, 45.75 4.09 C47.28 4.97, 48.75 6, 50.11 7.14 C51.46 8.27, 52.73 9.54, 53.86 10.89 C55 12.25, 56.03 13.72, 56.91 15.25 C57.8 16.78, 58.56 18.41, 59.16 20.07 C59.76 21.73, 60.23 23.47, 60.54 25.2 C60.84 26.94, 60.92 29.62, 61 30.5 C61.08 31.38, 61.08 29.62, 61 30.5" stroke="#1e1e1e" stroke-width="2" fill="none"></path></g><g stroke-linecap="round" transform="translate(1871.2910886862537 294.04713239460256) rotate(0 30.5 30.5)"><path d="M61 30.5 C61 32.27, 60.84 34.06, 60.54 35.8 C60.23 37.53, 59.76 39.27, 59.16 40.93 C58.56 42.59, 57.8 44.22, 56.91 45.75 C56.03 47.28, 55 48.75, 53.86 50.11 C52.73 51.46, 51.46 52.73, 50.11 53.86 C48.75 55, 47.28 56.03, 45.75 56.91 C44.22 57.8, 42.59 58.56, 40.93 59.16 C39.27 59.76, 37.53 60.23, 35.8 60.54 C34.06 60.84, 32.27 61, 30.5 61 C28.73 61, 26.94 60.84, 25.2 60.54 C23.47 60.23, 21.73 59.76, 20.07 59.16 C18.41 58.56, 16.78 57.8, 15.25 56.91 C13.72 56.03, 12.25 55, 10.89 53.86 C9.54 52.73, 8.27 51.46, 7.14 50.11 C6 48.75, 4.97 47.28, 4.09 45.75 C3.2 44.22, 2.44 42.59, 1.84 40.93 C1.24 39.27, 0.77 37.53, 0.46 35.8 C0.16 34.06, 0 32.27, 0 30.5 C0 28.73, 0.16 26.94, 0.46 25.2 C0.77 23.47, 1.24 21.73, 1.84 20.07 C2.44 18.41, 3.2 16.78, 4.09 15.25 C4.97 13.72, 6 12.25, 7.14 10.89 C8.27 9.54, 9.54 8.27, 10.89 7.14 C12.25 6, 13.72 4.97, 15.25 4.09 C16.78 3.2, 18.41 2.44, 20.07 1.84 C21.73 1.24, 23.47 0.77, 25.2 0.46 C26.94 0.16, 28.73 0, 30.5 0 C32.27 0, 34.06 0.16, 35.8 0.46 C37.53 0.77, 39.27 1.24, 40.93 1.84 C42.59 2.44, 44.22 3.2, 45.75 4.09 C47.28 4.97, 48.75 6, 50.11 7.14 C51.46 8.27, 52.73 9.54, 53.86 10.89 C55 12.25, 56.03 13.72, 56.91 15.25 C57.8 16.78, 58.56 18.41, 59.16 20.07 C59.76 21.73, 60.23 23.47, 60.54 25.2 C60.84 26.94, 60.92 29.62, 61 30.5 C61.08 31.38, 61.08 29.62, 61 30.5" stroke="#1e1e1e" stroke-width="2" fill="none"></path></g><g stroke-linecap="round" transform="translate(1941.2910886862537 294.04713239460256) rotate(0 30.5 30.5)"><path d="M61 30.5 C61 32.27, 60.84 34.06, 60.54 35.8 C60.23 37.53, 59.76 39.27, 59.16 40.93 C58.56 42.59, 57.8 44.22, 56.91 45.75 C56.03 47.28, 55 48.75, 53.86 50.11 C52.73 51.46, 51.46 52.73, 50.11 53.86 C48.75 55, 47.28 56.03, 45.75 56.91 C44.22 57.8, 42.59 58.56, 40.93 59.16 C39.27 59.76, 37.53 60.23, 35.8 60.54 C34.06 60.84, 32.27 61, 30.5 61 C28.73 61, 26.94 60.84, 25.2 60.54 C23.47 60.23, 21.73 59.76, 20.07 59.16 C18.41 58.56, 16.78 57.8, 15.25 56.91 C13.72 56.03, 12.25 55, 10.89 53.86 C9.54 52.73, 8.27 51.46, 7.14 50.11 C6 48.75, 4.97 47.28, 4.09 45.75 C3.2 44.22, 2.44 42.59, 1.84 40.93 C1.24 39.27, 0.77 37.53, 0.46 35.8 C0.16 34.06, 0 32.27, 0 30.5 C0 28.73, 0.16 26.94, 0.46 25.2 C0.77 23.47, 1.24 21.73, 1.84 20.07 C2.44 18.41, 3.2 16.78, 4.09 15.25 C4.97 13.72, 6 12.25, 7.14 10.89 C8.27 9.54, 9.54 8.27, 10.89 7.14 C12.25 6, 13.72 4.97, 15.25 4.09 C16.78 3.2, 18.41 2.44, 20.07 1.84 C21.73 1.24, 23.47 0.77, 25.2 0.46 C26.94 0.16, 28.73 0, 30.5 0 C32.27 0, 34.06 0.16, 35.8 0.46 C37.53 0.77, 39.27 1.24, 40.93 1.84 C42.59 2.44, 44.22 3.2, 45.75 4.09 C47.28 4.97, 48.75 6, 50.11 7.14 C51.46 8.27, 52.73 9.54, 53.86 10.89 C55 12.25, 56.03 13.72, 56.91 15.25 C57.8 16.78, 58.56 18.41, 59.16 20.07 C59.76 21.73, 60.23 23.47, 60.54 25.2 C60.84 26.94, 60.92 29.62, 61 30.5 C61.08 31.38, 61.08 29.62, 61 30.5" stroke="#1e1e1e" stroke-width="2" fill="none"></path></g><g stroke-linecap="round" transform="translate(2045.978369654923 294.04713239460256) rotate(0 30.5 30.5)"><path d="M61 30.5 C61 32.27, 60.84 34.06, 60.54 35.8 C60.23 37.53, 59.76 39.27, 59.16 40.93 C58.56 42.59, 57.8 44.22, 56.91 45.75 C56.03 47.28, 55 48.75, 53.86 50.11 C52.73 51.46, 51.46 52.73, 50.11 53.86 C48.75 55, 47.28 56.03, 45.75 56.91 C44.22 57.8, 42.59 58.56, 40.93 59.16 C39.27 59.76, 37.53 60.23, 35.8 60.54 C34.06 60.84, 32.27 61, 30.5 61 C28.73 61, 26.94 60.84, 25.2 60.54 C23.47 60.23, 21.73 59.76, 20.07 59.16 C18.41 58.56, 16.78 57.8, 15.25 56.91 C13.72 56.03, 12.25 55, 10.89 53.86 C9.54 52.73, 8.27 51.46, 7.14 50.11 C6 48.75, 4.97 47.28, 4.09 45.75 C3.2 44.22, 2.44 42.59, 1.84 40.93 C1.24 39.27, 0.77 37.53, 0.46 35.8 C0.16 34.06, 0 32.27, 0 30.5 C0 28.73, 0.16 26.94, 0.46 25.2 C0.77 23.47, 1.24 21.73, 1.84 20.07 C2.44 18.41, 3.2 16.78, 4.09 15.25 C4.97 13.72, 6 12.25, 7.14 10.89 C8.27 9.54, 9.54 8.27, 10.89 7.14 C12.25 6, 13.72 4.97, 15.25 4.09 C16.78 3.2, 18.41 2.44, 20.07 1.84 C21.73 1.24, 23.47 0.77, 25.2 0.46 C26.94 0.16, 28.73 0, 30.5 0 C32.27 0, 34.06 0.16, 35.8 0.46 C37.53 0.77, 39.27 1.24, 40.93 1.84 C42.59 2.44, 44.22 3.2, 45.75 4.09 C47.28 4.97, 48.75 6, 50.11 7.14 C51.46 8.27, 52.73 9.54, 53.86 10.89 C55 12.25, 56.03 13.72, 56.91 15.25 C57.8 16.78, 58.56 18.41, 59.16 20.07 C59.76 21.73, 60.23 23.47, 60.54 25.2 C60.84 26.94, 60.92 29.62, 61 30.5 C61.08 31.38, 61.08 29.62, 61 30.5" stroke="#1e1e1e" stroke-width="2" fill="none"></path></g><g stroke-linecap="round" transform="translate(2115.978369654923 294.04713239460256) rotate(0 30.5 30.5)"><path d="M61 30.5 C61 32.27, 60.84 34.06, 60.54 35.8 C60.23 37.53, 59.76 39.27, 59.16 40.93 C58.56 42.59, 57.8 44.22, 56.91 45.75 C56.03 47.28, 55 48.75, 53.86 50.11 C52.73 51.46, 51.46 52.73, 50.11 53.86 C48.75 55, 47.28 56.03, 45.75 56.91 C44.22 57.8, 42.59 58.56, 40.93 59.16 C39.27 59.76, 37.53 60.23, 35.8 60.54 C34.06 60.84, 32.27 61, 30.5 61 C28.73 61, 26.94 60.84, 25.2 60.54 C23.47 60.23, 21.73 59.76, 20.07 59.16 C18.41 58.56, 16.78 57.8, 15.25 56.91 C13.72 56.03, 12.25 55, 10.89 53.86 C9.54 52.73, 8.27 51.46, 7.14 50.11 C6 48.75, 4.97 47.28, 4.09 45.75 C3.2 44.22, 2.44 42.59, 1.84 40.93 C1.24 39.27, 0.77 37.53, 0.46 35.8 C0.16 34.06, 0 32.27, 0 30.5 C0 28.73, 0.16 26.94, 0.46 25.2 C0.77 23.47, 1.24 21.73, 1.84 20.07 C2.44 18.41, 3.2 16.78, 4.09 15.25 C4.97 13.72, 6 12.25, 7.14 10.89 C8.27 9.54, 9.54 8.27, 10.89 7.14 C12.25 6, 13.72 4.97, 15.25 4.09 C16.78 3.2, 18.41 2.44, 20.07 1.84 C21.73 1.24, 23.47 0.77, 25.2 0.46 C26.94 0.16, 28.73 0, 30.5 0 C32.27 0, 34.06 0.16, 35.8 0.46 C37.53 0.77, 39.27 1.24, 40.93 1.84 C42.59 2.44, 44.22 3.2, 45.75 4.09 C47.28 4.97, 48.75 6, 50.11 7.14 C51.46 8.27, 52.73 9.54, 53.86 10.89 C55 12.25, 56.03 13.72, 56.91 15.25 C57.8 16.78, 58.56 18.41, 59.16 20.07 C59.76 21.73, 60.23 23.47, 60.54 25.2 C60.84 26.94, 60.92 29.62, 61 30.5 C61.08 31.38, 61.08 29.62, 61 30.5" stroke="#1e1e1e" stroke-width="2" fill="none"></path></g><g stroke-linecap="round" transform="translate(2200.978369654923 294.04713239460256) rotate(0 30.5 30.5)"><path d="M61 30.5 C61 32.27, 60.84 34.06, 60.54 35.8 C60.23 37.53, 59.76 39.27, 59.16 40.93 C58.56 42.59, 57.8 44.22, 56.91 45.75 C56.03 47.28, 55 48.75, 53.86 50.11 C52.73 51.46, 51.46 52.73, 50.11 53.86 C48.75 55, 47.28 56.03, 45.75 56.91 C44.22 57.8, 42.59 58.56, 40.93 59.16 C39.27 59.76, 37.53 60.23, 35.8 60.54 C34.06 60.84, 32.27 61, 30.5 61 C28.73 61, 26.94 60.84, 25.2 60.54 C23.47 60.23, 21.73 59.76, 20.07 59.16 C18.41 58.56, 16.78 57.8, 15.25 56.91 C13.72 56.03, 12.25 55, 10.89 53.86 C9.54 52.73, 8.27 51.46, 7.14 50.11 C6 48.75, 4.97 47.28, 4.09 45.75 C3.2 44.22, 2.44 42.59, 1.84 40.93 C1.24 39.27, 0.77 37.53, 0.46 35.8 C0.16 34.06, 0 32.27, 0 30.5 C0 28.73, 0.16 26.94, 0.46 25.2 C0.77 23.47, 1.24 21.73, 1.84 20.07 C2.44 18.41, 3.2 16.78, 4.09 15.25 C4.97 13.72, 6 12.25, 7.14 10.89 C8.27 9.54, 9.54 8.27, 10.89 7.14 C12.25 6, 13.72 4.97, 15.25 4.09 C16.78 3.2, 18.41 2.44, 20.07 1.84 C21.73 1.24, 23.47 0.77, 25.2 0.46 C26.94 0.16, 28.73 0, 30.5 0 C32.27 0, 34.06 0.16, 35.8 0.46 C37.53 0.77, 39.27 1.24, 40.93 1.84 C42.59 2.44, 44.22 3.2, 45.75 4.09 C47.28 4.97, 48.75 6, 50.11 7.14 C51.46 8.27, 52.73 9.54, 53.86 10.89 C55 12.25, 56.03 13.72, 56.91 15.25 C57.8 16.78, 58.56 18.41, 59.16 20.07 C59.76 21.73, 60.23 23.47, 60.54 25.2 C60.84 26.94, 60.92 29.62, 61 30.5 C61.08 31.38, 61.08 29.62, 61 30.5" stroke="#1e1e1e" stroke-width="2" fill="none"></path></g><g stroke-linecap="round"><g transform="translate(1880.0633460990377 62.52271758724339) rotate(0 -97.65319107204954 50.432811825227446)"><path d="M0 0 C-73.57 38, -147.15 75.99, -195.31 100.87 M0 0 C-74.05 38.24, -148.11 76.49, -195.31 100.87" stroke="#1e1e1e" stroke-width="2" fill="none"></path></g></g><mask></mask><g stroke-linecap="round"><g transform="translate(1945.371185511994 64.38675409745679) rotate(0 83.74027343652693 48.661392063395056)"><path d="M0 0 C41.47 24.1, 82.95 48.2, 167.48 97.32 M0 0 C47.35 27.51, 94.7 55.03, 167.48 97.32" stroke="#1e1e1e" stroke-width="2" fill="none"></path></g></g><mask></mask><g stroke-linecap="round"><g transform="translate(1906.3589617305247 75.2511830314993) rotate(0 -0.4197007533628607 35.25486328247962)"><path d="M0 0 C-0.3 25.31, -0.6 50.61, -0.84 70.51 M0 0 C-0.28 23.47, -0.56 46.95, -0.84 70.51" stroke="#1e1e1e" stroke-width="2" fill="none"></path></g></g><mask></mask><g stroke-linecap="round"><g transform="translate(1635.232275058122 218.78884068159482) rotate(0 -30.638154995488208 35.25486328247959)"><path d="M0 0 C-14.62 16.82, -29.24 33.65, -61.28 70.51 M0 0 C-22.74 26.16, -45.47 52.33, -61.28 70.51" stroke="#1e1e1e" stroke-width="2" fill="none"></path></g></g><mask></mask><g stroke-linecap="round"><g transform="translate(1654.5385097128133 229.70106026902897) rotate(0 -8.3940150672571 27.70024972194824)"><path d="M0 0 C-5.39 17.78, -10.77 35.55, -16.79 55.4 M0 0 C-3.56 11.75, -7.12 23.5, -16.79 55.4" stroke="#1e1e1e" stroke-width="2" fill="none"></path></g></g><mask></mask><g stroke-linecap="round"><g transform="translate(1674.6841458742301 227.18285574885186) rotate(0 13.85012486097412 30.218454242125347)"><path d="M0 0 C9.84 21.46, 19.67 42.92, 27.7 60.44 M0 0 C7.9 17.25, 15.81 34.49, 27.7 60.44" stroke="#1e1e1e" stroke-width="2" fill="none"></path></g></g><mask></mask><g stroke-linecap="round"><g transform="translate(1883.6951210489306 213.75243164124055) rotate(0 -20.14563616141686 37.773067802656726)"><path d="M0 0 C-12.71 23.83, -25.42 47.66, -40.29 75.55 M0 0 C-15.12 28.34, -30.23 56.69, -40.29 75.55" stroke="#1e1e1e" stroke-width="2" fill="none"></path></g></g><mask></mask><g stroke-linecap="round"><g transform="translate(1907.1983632372503 219.62824218832048) rotate(0 -2.0985037668143036 33.576060269028204)"><path d="M0 0 C-0.88 14.11, -1.76 28.22, -4.2 67.15 M0 0 C-1.1 17.56, -2.19 35.12, -4.2 67.15" stroke="#1e1e1e" stroke-width="2" fill="none"></path></g></g><mask></mask><g stroke-linecap="round"><g transform="translate(1932.3804084390215 211.2342271210635) rotate(0 15.948628627788423 39.871571569470944)"><path d="M0 0 C12.46 31.16, 24.93 62.32, 31.9 79.74 M0 0 C8.31 20.76, 16.61 41.53, 31.9 79.74" stroke="#1e1e1e" stroke-width="2" fill="none"></path></g></g><mask></mask><g stroke-linecap="round"><g transform="translate(2118.727542932128 219.62824218832048) rotate(0 -16.788030134514145 38.19276855601956)"><path d="M0 0 C-12.15 27.64, -24.3 55.28, -33.58 76.39 M0 0 C-8.9 20.24, -17.79 40.47, -33.58 76.39" stroke="#1e1e1e" stroke-width="2" fill="none"></path></g></g><mask></mask><g stroke-linecap="round"><g transform="translate(2144.748989640625 228.02225725557753) rotate(0 1.678803013451386 31.89725725557679)"><path d="M0 0 C0.97 18.51, 1.95 37.03, 3.36 63.79 M0 0 C0.96 18.22, 1.92 36.44, 3.36 63.79" stroke="#1e1e1e" stroke-width="2" fill="none"></path></g></g><mask></mask><g stroke-linecap="round"><g transform="translate(2166.573428815493 219.62824218832048) rotate(0 25.182045201771132 36.09426478920531)"><path d="M0 0 C10.78 15.45, 21.56 30.9, 50.36 72.19 M0 0 C14.66 21.01, 29.31 42.01, 50.36 72.19" stroke="#1e1e1e" stroke-width="2" fill="none"></path></g></g><mask></mask><g stroke-linecap="round"><g transform="translate(418.46541924234805 105.37187708962148) rotate(0 46.51793271249932 149.11239888713715)"><path d="M0 0 C15.51 23.79, 81.55 93.04, 93.04 142.74 C104.52 192.44, 72.93 272.31, 68.91 298.22" stroke="#1971c2" stroke-width="2.5" fill="none" stroke-dasharray="8 10"></path></g></g><mask></mask><g stroke-linecap="round"><g transform="translate(1179.9830095756934 113.01866677614129) rotate(0 46.51793271249932 149.11239888713715)"><path d="M0 0 C15.51 23.79, 81.55 93.04, 93.04 142.74 C104.52 192.44, 72.93 272.31, 68.91 298.22" stroke="#1971c2" stroke-width="2.5" fill="none" stroke-dasharray="8 10"></path></g></g><mask></mask><g stroke-linecap="round"><g transform="translate(1717.145201002969 87.5293678210748) rotate(0 44.606273171365956 161.85704836467033)"><path d="M0 0 C14.87 22.09, 85.18 78.59, 89.21 132.54 C93.25 186.5, 35.05 291.85, 24.21 323.71" stroke="#1971c2" stroke-width="2.5" fill="none" stroke-dasharray="8 10"></path></g></g><mask></mask></svg>